<svg width="389" height="113" viewBox="0 0 389 113" fill="none" xmlns="http://www.w3.org/2000/svg">
<path d="M134.099 54.8232V90.0739H148.628C159.656 90.0739 166.933 83.0741 166.933 72.4486C166.933 61.823 159.656 54.8232 148.628 54.8232H134.099ZM148.552 61.3949C155.98 61.3949 159.58 65.9775 159.58 72.4486C159.58 78.844 155.98 83.5022 148.552 83.5022H141.124V61.3949H148.552ZM185.127 65.0207C177.825 65.0207 172.789 70.258 172.789 77.9376C172.789 85.6172 177.976 90.7034 185.454 90.7034C189.558 90.7034 193.084 89.5452 195.853 87.0021L192.001 82.772C190.238 84.2575 187.947 85.1136 185.832 85.1136C182.735 85.1136 180.267 83.5777 179.562 80.0526H196.86C196.936 79.4987 196.986 78.5923 196.986 77.8369C196.961 70.2328 192.152 65.0207 185.127 65.0207ZM185.077 70.686C187.897 70.686 189.785 72.4486 190.389 75.5708H179.588C180.167 72.5493 181.98 70.686 185.077 70.686ZM226.923 65.6754H219.998L213.628 83.1497L207.308 65.6754H200.157L209.801 90.0739H217.38L226.923 65.6754ZM242.49 65.0207C235.188 65.0207 230.152 70.258 230.152 77.9376C230.152 85.6172 235.339 90.7034 242.817 90.7034C246.922 90.7034 250.447 89.5452 253.216 87.0021L249.364 82.772C247.601 84.2575 245.31 85.1136 243.195 85.1136C240.098 85.1136 237.63 83.5777 236.925 80.0526H254.223C254.299 79.4987 254.349 78.5923 254.349 77.8369C254.324 70.2328 249.515 65.0207 242.49 65.0207ZM242.44 70.686C245.26 70.686 247.148 72.4486 247.752 75.5708H236.951C237.53 72.5493 239.343 70.686 242.44 70.686ZM267.777 53.816H261.205V90.0739H267.777V53.816ZM287.849 65.0207C280.27 65.0207 274.68 70.5098 274.68 77.8621C274.68 85.2144 280.27 90.7034 287.849 90.7034C295.453 90.7034 301.068 85.2144 301.068 77.8621C301.068 70.5098 295.453 65.0207 287.849 65.0207ZM287.849 71.1392C291.55 71.1392 294.345 73.9089 294.345 77.8621C294.345 81.8152 291.55 84.5849 287.849 84.5849C284.147 84.5849 281.378 81.8152 281.378 77.8621C281.378 73.9089 284.147 71.1392 287.849 71.1392ZM321.643 65.0207C318.294 65.0207 315.953 66.3804 314.366 68.3695V65.6754H307.946V100.146H314.492V87.5308C316.079 89.4193 318.395 90.7034 321.668 90.7034C328.391 90.7034 333.477 85.1892 333.477 77.8621C333.477 70.5349 328.391 65.0207 321.643 65.0207ZM320.435 71.1392C324.312 71.1392 326.729 74.1356 326.729 77.8621C326.729 81.5886 324.312 84.5849 320.435 84.5849C316.708 84.5849 314.165 81.7145 314.165 77.8621C314.165 74.0097 316.708 71.1392 320.435 71.1392ZM351.167 65.0207C343.865 65.0207 338.829 70.258 338.829 77.9376C338.829 85.6172 344.016 90.7034 351.495 90.7034C355.599 90.7034 359.124 89.5452 361.894 87.0021L358.041 82.772C356.279 84.2575 353.987 85.1136 351.872 85.1136C348.775 85.1136 346.308 83.5777 345.603 80.0526H362.901C362.976 79.4987 363.027 78.5923 363.027 77.8369C363.001 70.2328 358.192 65.0207 351.167 65.0207ZM351.117 70.686C353.937 70.686 355.825 72.4486 356.43 75.5708H345.628C346.207 72.5493 348.02 70.686 351.117 70.686ZM383.127 65.0207C380.13 65.0207 377.789 66.0531 376.253 68.3444V65.6754H369.882V90.0739H376.454V76.7794C376.454 73.1536 378.544 71.2903 381.591 71.2903C382.925 71.2903 384.486 71.5925 385.569 72.0709L386.551 65.5495C385.644 65.2222 384.537 65.0207 383.127 65.0207Z" fill="#173361"/>
<path d="M146.372 30.3504H148.085C147.419 33.5336 144.81 35.6742 141.321 35.6742C137.23 35.6742 133.931 32.5147 133.931 28.3362C133.931 24.1578 137.23 21.0141 141.321 21.0141C144.81 21.0141 147.419 23.1388 148.085 26.3141H146.372C145.786 24.0077 143.906 22.5464 141.321 22.5464C138.11 22.5464 135.604 25.0187 135.604 28.3283C135.604 31.6379 138.11 34.1339 141.321 34.1339C143.906 34.1339 145.786 32.6332 146.372 30.3504Z" fill="#173361"/>
<path d="M165.118 28.3283C165.118 25.1293 162.612 22.5464 159.401 22.5464C156.189 22.5464 153.675 25.1293 153.675 28.3283C153.675 31.5273 156.181 34.1102 159.393 34.1102C162.604 34.1102 165.118 31.5352 165.118 28.3283ZM166.783 28.3283C166.783 32.4041 163.484 35.6505 159.393 35.6505C155.301 35.6505 152.002 32.4041 152.002 28.3283C152.002 24.2526 155.301 21.0062 159.393 21.0062C163.484 21.0062 166.783 24.2526 166.783 28.3283Z" fill="#173361"/>
<path d="M183.697 21.2589V35.3977H182.317L173.238 24.2526V35.3977H171.588V21.2589H172.92L182.047 32.5542V21.2589H183.697Z" fill="#173361"/>
<path d="M191.285 22.7755V27.9729H198.509V29.4973H191.285V35.3977H189.636V21.2589H199.381V22.7755H191.285Z" fill="#173361"/>
<path d="M214.558 33.8812V35.3977H205.083V21.2589H206.732V33.8812H214.558Z" fill="#173361"/>
<path d="M230.275 29.3473C230.275 33.115 227.856 35.6505 224.201 35.6505C220.545 35.6505 218.127 33.115 218.127 29.3473V21.2589H219.776V29.3473C219.776 32.1118 221.528 34.1102 224.201 34.1102C226.849 34.1102 228.625 32.1118 228.625 29.3473V21.2589H230.275V29.3473Z" fill="#173361"/>
<path d="M237.713 22.7755V27.6253H245.166V29.1419H237.713V33.8812H245.999V35.3977H236.063V21.2589H245.999V22.7755H237.713Z" fill="#173361"/>
<path d="M263.039 21.2589V35.3977H261.66L252.58 24.2526V35.3977H250.931V21.2589H252.271L261.39 32.5542V21.2589H263.039Z" fill="#173361"/>
<path d="M267.417 21.2589V22.7755H272.642V35.3977H274.291V22.7755H279.525V21.2589H267.417Z" fill="#173361"/>
<path d="M72.8627 54.717C68.0595 54.5766 63.2283 54.5204 58.4251 54.4923C58.4251 49.6891 58.397 44.8578 58.2565 40.0546L58.0318 31.8527C57.8914 29.1281 57.8071 26.3754 57.6105 23.6508H55.3072C55.1106 26.3754 55.0263 29.1281 54.8859 31.8527L54.6612 40.0546C54.605 42.3017 54.5769 44.5769 54.5488 46.824C53.65 44.7455 52.7792 42.6669 51.8523 40.6164L48.5097 33.1448C47.33 30.673 46.2064 28.1731 44.9986 25.7293L42.8639 26.6282C43.7346 29.2123 44.6896 31.7684 45.6166 34.3526L48.5378 42.0209C49.3524 44.1275 50.195 46.2342 51.0377 48.3128C49.4366 46.7398 47.8075 45.1668 46.1783 43.5938L40.2235 37.948C38.2011 36.1222 36.2068 34.2402 34.1282 32.4426L32.4991 34.0717C34.2968 36.1503 36.1787 38.1165 38.0045 40.167L43.6503 46.1218C45.1952 47.751 46.7682 49.3801 48.3693 50.9812C46.2626 50.1385 44.184 49.2959 42.0774 48.4813L34.4091 45.56C31.8249 44.6331 29.2689 43.6781 26.6847 42.8073L25.7858 44.9421C28.2296 46.178 30.7295 47.2735 33.2013 48.4532L40.6729 51.7958C42.7234 52.7227 44.802 53.5935 46.8806 54.4923C44.6335 54.5204 42.3583 54.5485 40.1112 54.6047L31.9092 54.8294C29.1846 54.9698 26.4319 55.0541 23.7073 55.2507V57.554C26.4319 57.7506 29.1846 57.8349 31.9092 57.9753L40.1112 58.2C44.9143 58.3405 49.7456 58.3405 54.5488 58.3686C54.5769 63.1717 54.605 68.003 54.7735 72.8062L55.0263 81.0082C55.1668 83.7328 55.251 86.4855 55.4477 89.2101H57.5543C57.7509 86.4855 57.8352 83.7328 57.9756 81.0082L58.2284 72.8062C58.3127 70.5029 58.3408 68.1716 58.3689 65.8683C59.2958 68.003 60.1947 70.1097 61.1497 72.2163L64.5203 79.688C65.7001 82.1598 66.8236 84.6597 68.0595 87.1034L69.9977 86.2889C69.1269 83.6766 68.1719 81.1205 67.2731 78.5363L64.3799 70.8681C63.5653 68.7052 62.7227 66.5424 61.8519 64.4077C63.5091 66.0087 65.1664 67.6379 66.8517 69.2108L72.8346 74.8286C74.857 76.6544 76.8513 78.5363 78.9299 80.3059L80.4186 78.8172C78.6209 76.7387 76.7671 74.7443 74.9413 72.7219L69.3235 66.739C67.7506 65.0537 66.1214 63.3965 64.5203 61.7392C66.6832 62.5819 68.8179 63.4526 70.9808 64.2672L78.649 67.1604C81.2332 68.0592 83.7893 69.0423 86.4015 69.885L87.2161 67.9468C84.7724 66.7109 82.2725 65.5874 79.8007 64.4077L72.329 61.037C70.2224 60.082 68.0876 59.155 65.981 58.2562C68.2842 58.2281 70.6156 58.2 72.9189 58.1158L81.1208 57.863C83.8455 57.7225 86.5982 57.6382 89.3228 57.4416V55.335C86.5982 55.1383 83.8455 55.0541 81.1208 54.9136L72.8627 54.717Z" fill="#173361"/>
<path d="M56.4588 2.8089C26.8812 2.8089 2.80908 26.881 2.80908 56.4586C2.80908 86.0361 26.8812 110.108 56.4588 110.108C86.0363 110.108 110.108 86.0361 110.108 56.4586C110.137 26.881 86.0644 2.8089 56.4588 2.8089ZM56.4588 105.108C29.6339 105.108 7.80889 83.2834 7.80889 56.4586C7.80889 29.6337 29.6339 7.80871 56.4588 7.80871C83.2836 7.80871 105.109 29.6337 105.109 56.4586C105.109 83.2834 83.2836 105.108 56.4588 105.108Z" fill="#173361"/>
</svg>
