<svg fill="none" height="40" viewBox="0 0 40 40" width="40" xmlns="http://www.w3.org/2000/svg"><path clip-rule="evenodd" d="m31.542 39.958h-29.63c-1.056 0-1.912-.856-1.912-1.912v-31.37c0-1.056.856-1.912 1.912-1.912h29.63c1.056 0 1.912.856 1.912 1.912v31.37c0 1.056-.856 1.912-1.912 1.912z" fill="#d7eff6" fill-rule="evenodd"/><g stroke="#0074a2" stroke-linecap="round" stroke-linejoin="round" stroke-width="1.5"><path clip-rule="evenodd" d="m3.179 3.445c0-.762.623-1.384 1.384-1.384h19.939c.76 0 1.384.622 1.384 1.384v1.86c0 1.784-1.46 3.243-3.244 3.243h-5.407c-2.973 0-5.406 2.433-5.406 5.407v10.812c0 2.974 2.433 5.407 5.406 5.407h5.407c1.784 0 3.244 1.46 3.244 3.243v1.86c0 .762-.623 1.384-1.384 1.384h-19.941c-.76 0-1.383-.622-1.383-1.384v-31.832z" fill-rule="evenodd"/><path d="m37.78 19.361v-15.916c0-.762-.623-1.384-1.385-1.384h-5.882c-.76 0-1.384.622-1.384 1.384v3.092c0 2.974-2.433 5.407-5.406 5.407h-5.255c-1.784 0-3.244 1.46-3.244 3.243v8.348c0 1.784 1.46 3.244 3.244 3.244h5.255c2.974 0 5.406 2.432 5.406 5.406v3.092c0 .761.623 1.384 1.384 1.384h5.882c.762 0 1.384-.623 1.384-1.384v-15.916"/></g></svg>