<svg width="48" height="48" viewBox="0 0 48 48" fill="none" xmlns="http://www.w3.org/2000/svg">
<path fill-rule="evenodd" clip-rule="evenodd" d="M31.429 7.32336C22.1739 3.26556 11.3816 7.47885 7.32379 16.734C6.10899 19.5047 5.63607 22.409 5.81577 25.2289C5.86845 26.0557 5.24095 26.7686 4.4142 26.8213C3.58745 26.874 2.87453 26.2465 2.82184 25.4197C2.61239 22.1329 3.16461 18.7491 4.57627 15.5294C9.29935 4.75681 21.8611 -0.147255 32.6336 4.57583C43.4062 9.29892 48.3103 21.8606 43.5872 32.6332C38.8641 43.4058 26.3024 48.3098 15.5298 43.5867C11.9793 42.0301 9.06295 39.6189 6.92055 36.7C6.43037 36.0322 6.5744 35.0934 7.24224 34.6032C7.91009 34.1131 8.84885 34.2571 9.33903 34.9249C11.1777 37.43 13.6798 39.4999 16.7344 40.8392C25.9896 44.897 36.7818 40.6837 40.8396 31.4286C44.8974 22.1734 40.6842 11.3812 31.429 7.32336Z" fill="white"/>
<path fill-rule="evenodd" clip-rule="evenodd" d="M5.99465 41.4093C5.16686 41.4416 4.46955 40.7968 4.43718 39.969L4.22187 34.4636C4.16491 33.007 5.3611 31.8108 6.81766 31.8678L12.3231 32.0831C13.1509 32.1155 13.7957 32.8128 13.7633 33.6406C13.731 34.4684 13.0337 35.1132 12.2059 35.0808L7.24071 34.8866L7.43489 39.8518C7.46726 40.6796 6.82245 41.3769 5.99465 41.4093Z" fill="white"/>
<path fill-rule="evenodd" clip-rule="evenodd" d="M24 33C28.9706 33 33 28.9706 33 24C33 19.0294 28.9706 15 24 15C19.0294 15 15 19.0294 15 24C15 28.9706 19.0294 33 24 33ZM24 36C30.6274 36 36 30.6274 36 24C36 17.3726 30.6274 12 24 12C17.3726 12 12 17.3726 12 24C12 30.6274 17.3726 36 24 36Z" fill="white"/>
<rect x="28" y="20" width="8" height="8" transform="rotate(90 28 20)" fill="url(#paint0_linear_3332_8478)"/>
<defs>
<linearGradient id="paint0_linear_3332_8478" x1="32" y1="20" x2="32" y2="28" gradientUnits="userSpaceOnUse">
<stop stop-color="#38CCED"/>
<stop offset="1" stop-color="#38CCED" stop-opacity="0.4"/>
</linearGradient>
</defs>
</svg>
