<?xml version="1.0" encoding="utf-8"?>
<!-- Generator: Adobe Illustrator 24.1.0, SVG Export Plug-In . SVG Version: 6.00 Build 0)  -->
<svg version="1.1" id="Layer_1" xmlns="http://www.w3.org/2000/svg" xmlns:xlink="http://www.w3.org/1999/xlink" x="0px" y="0px"
	 width="40" height="40" viewBox="0 0 40 40" style="enable-background:new 0 0 40 40;" xml:space="preserve">
<style type="text/css">
	.st0{fill:#D7EFF6;}
	.st1{fill:#0074A2;}
</style>
<path class="st0" d="M19.8,30.5c5.8,0,10.5-4.7,10.5-10.5c0-5.8-4.7-10.5-10.5-10.5C14.1,9.5,9.4,14.2,9.4,20
	C9.4,25.8,14.1,30.5,19.8,30.5z"/>
<path class="st1" d="M35.2,25.4c-0.2-0.1-0.3-0.2-0.5-0.2c-0.4-1.6-1.4-3.4-3-5.2c1.5-1.8,2.6-3.5,3-5.1c0.2-0.1,0.3-0.1,0.5-0.2
	c0.7-0.4,1.2-1.1,1.4-1.8c0.2-0.8,0.1-1.6-0.3-2.3c-0.8-1.4-2.7-1.9-4.1-1.1c-0.2,0.1-0.3,0.2-0.4,0.3c-1.6-0.5-3.6-0.5-5.9,0
	c-0.8-2.2-1.8-4-3-5.1c0-0.2,0-0.3,0-0.5c0-1.7-1.4-3-3-3c-1.7,0-3,1.4-3,3c0,0.2,0,0.4,0,0.5c-1.2,1.1-2.2,2.9-3,5.1
	c-2.3-0.5-4.4-0.5-6,0C7.8,9.6,7.7,9.5,7.5,9.4c-1.4-0.8-3.3-0.3-4.1,1.1C3,11.2,2.9,12,3.1,12.8c0.2,0.8,0.7,1.4,1.4,1.8
	c0.2,0.1,0.3,0.2,0.5,0.2c0.4,1.6,1.4,3.4,3,5.1c-1.6,1.8-2.6,3.6-3,5.2c-0.2,0.1-0.3,0.1-0.5,0.2c-0.7,0.4-1.2,1.1-1.4,1.8
	S3,28.8,3.4,29.5C4,30.5,5,31,6,31c0.5,0,1-0.1,1.5-0.4c0.2-0.1,0.3-0.2,0.4-0.3c0.8,0.2,1.7,0.4,2.7,0.4c1,0,2.1-0.1,3.3-0.4
	c0.8,2.2,1.8,4,3,5.2c0,0.2,0,0.3,0,0.5c0,1.7,1.4,3,3,3c1.7,0,3-1.4,3-3c0-0.2,0-0.4,0-0.5c1.2-1.1,2.2-2.9,3-5.2
	c1.2,0.2,2.3,0.3,3.3,0.3c1,0,1.9-0.1,2.7-0.4c0.1,0.1,0.3,0.2,0.4,0.3c0.2,0.1,0.5,0.2,0.7,0.3c0.3,0.1,0.5,0.1,0.8,0.1
	c1,0,2.1-0.5,2.6-1.5c0.4-0.7,0.5-1.5,0.3-2.3C36.4,26.4,35.9,25.8,35.2,25.4z M33,10.7c0.7-0.4,1.6-0.2,2,0.5
	c0.2,0.3,0.2,0.7,0.1,1.1c-0.1,0.4-0.3,0.7-0.7,0.9c-0.7,0.4-1.6,0.2-2-0.5c-0.2-0.3-0.2-0.7-0.1-1.1C32.4,11.2,32.6,10.9,33,10.7z
	 M30.9,11c0,0.1,0,0.1-0.1,0.2c-0.2,0.8-0.1,1.6,0.3,2.3c0.4,0.8,1.2,1.3,2,1.4c-0.4,1.2-1.2,2.5-2.4,3.9c-1-1-2.2-2.1-3.6-3.1
	c-0.2-1.7-0.5-3.2-0.9-4.6C28,10.8,29.6,10.8,30.9,11z M22.8,25.2c-1,0.6-2,1.1-3,1.5c-1-0.5-2-1-3-1.5c-1-0.6-1.9-1.2-2.8-1.8
	c-0.1-1.1-0.2-2.2-0.2-3.3c0-1.1,0.1-2.3,0.2-3.4c0.9-0.6,1.8-1.2,2.8-1.8c1-0.6,2-1.1,3-1.6c1,0.5,2,1,3,1.6c1,0.6,1.9,1.2,2.8,1.8
	c0.1,1.1,0.2,2.2,0.2,3.4c0,1.1-0.1,2.3-0.2,3.3C24.8,24,23.8,24.6,22.8,25.2z M25.4,25.4c-0.2,1.1-0.4,2.2-0.7,3.1
	c-1-0.3-2-0.6-3-1c0.6-0.3,1.2-0.6,1.9-1C24.2,26.1,24.8,25.8,25.4,25.4z M18,27.5c-1,0.4-2,0.7-3,1c-0.3-1-0.5-2-0.7-3.1
	c0.6,0.4,1.2,0.8,1.8,1.1C16.7,26.9,17.4,27.2,18,27.5z M12.4,22.1c-0.9-0.7-1.7-1.4-2.4-2.1c0.7-0.7,1.5-1.4,2.4-2.1
	c0,0.7-0.1,1.4-0.1,2.1C12.4,20.7,12.4,21.4,12.4,22.1z M14.3,14.6c0.2-1.1,0.4-2.1,0.7-3.1c1,0.3,2,0.6,3,1c-0.6,0.3-1.3,0.7-1.9,1
	C15.5,13.9,14.9,14.2,14.3,14.6z M21.7,12.5c1-0.4,2-0.7,3-1c0.3,1,0.5,2,0.7,3.1c-0.6-0.4-1.2-0.7-1.8-1.1
	C23,13.1,22.4,12.8,21.7,12.5z M27.3,17.9c0.9,0.7,1.7,1.4,2.4,2.1c-0.7,0.7-1.5,1.4-2.4,2.1c0-0.7,0.1-1.4,0.1-2.1
	C27.4,19.3,27.3,18.6,27.3,17.9z M19.9,2.5c0.8,0,1.5,0.7,1.5,1.5s-0.7,1.5-1.5,1.5c-0.8,0-1.5-0.7-1.5-1.5S19,2.5,19.9,2.5z
	 M17.6,6c0.6,0.6,1.4,1,2.3,1c0.9,0,1.7-0.4,2.3-1c0.8,0.9,1.6,2.3,2.2,4c-1.4,0.4-2.9,0.9-4.4,1.6c-1.5-0.7-3-1.2-4.4-1.6
	C16,8.3,16.8,6.9,17.6,6z M4.7,11.3C5,10.8,5.5,10.5,6,10.5c0.3,0,0.5,0.1,0.7,0.2c0.3,0.2,0.6,0.5,0.7,0.9c0.1,0.4,0,0.8-0.1,1.1
	c-0.4,0.7-1.3,0.9-2,0.5c-0.3-0.2-0.6-0.5-0.7-0.9C4.5,12,4.5,11.6,4.7,11.3z M6.6,15c0.8-0.2,1.6-0.7,2-1.4C9,12.8,9.1,12,8.9,11.2
	c0-0.1,0-0.1-0.1-0.2c1.2-0.3,2.8-0.2,4.6,0.1c-0.4,1.4-0.7,3-0.9,4.6c-1.3,1-2.6,2-3.6,3.1C7.8,17.5,7,16.2,6.6,15z M4.9,29
	c-0.1-0.1-0.1-0.2-0.2-0.2c0,0,0-0.1-0.1-0.1c0,0,0,0,0,0c0,0,0-0.1,0-0.1c0,0,0,0,0,0c-0.2-0.6,0-1.2,0.4-1.6c0,0,0,0,0,0
	c0,0,0.1-0.1,0.1-0.1c0,0,0,0,0,0c0,0,0.1-0.1,0.1-0.1c0.1,0,0.1-0.1,0.2-0.1c0,0,0,0,0,0c0,0,0.1,0,0.1,0c0,0,0,0,0.1,0
	c0,0,0.1,0,0.1,0c0,0,0,0,0,0c0.1,0,0.1,0,0.2,0c0,0,0,0,0,0c0,0,0.1,0,0.1,0c0,0,0,0,0,0c0.1,0,0.1,0,0.2,0c0,0,0,0,0,0
	c0.1,0,0.1,0,0.2,0.1c0,0,0,0,0,0c0,0,0.1,0,0.1,0.1c0,0,0,0,0,0c0,0,0.1,0.1,0.1,0.1c0,0,0,0,0,0c0,0,0.1,0.1,0.1,0.1c0,0,0,0,0,0
	c0,0,0.1,0.1,0.1,0.1c0,0,0,0,0,0c0,0,0.1,0.1,0.1,0.2c0.2,0.3,0.2,0.7,0.1,1.1c-0.1,0.4-0.3,0.7-0.7,0.9C6.1,29.6,5.4,29.5,4.9,29z
	 M8.9,29c0-0.1,0-0.1,0.1-0.2C9.1,28,9,27.2,8.6,26.5c-0.5-0.8-1.2-1.3-2-1.4C7,23.8,7.8,22.5,9,21.1c1,1,2.2,2.1,3.6,3.1
	c0.2,1.7,0.5,3.2,0.9,4.6C11.7,29.2,10.1,29.2,8.9,29z M19.9,37.5c-0.8,0-1.5-0.7-1.5-1.5c0-0.8,0.7-1.5,1.5-1.5
	c0.8,0,1.5,0.7,1.5,1.5C21.3,36.8,20.7,37.5,19.9,37.5z M22.1,34c-0.6-0.6-1.4-1-2.3-1c-0.9,0-1.7,0.4-2.3,1c-0.9-0.9-1.6-2.3-2.2-4
	c1.4-0.4,2.9-0.9,4.5-1.6c1.5,0.7,3,1.2,4.5,1.6C23.7,31.7,23,33.1,22.1,34z M26.3,28.8c0.4-1.4,0.7-3,0.9-4.7c1.3-1,2.5-2,3.6-3.1
	c1.2,1.4,2,2.7,2.4,3.9c-0.8,0.2-1.6,0.7-2,1.4c-0.4,0.7-0.5,1.5-0.3,2.3c0,0.1,0,0.1,0.1,0.2C29.6,29.2,28,29.2,26.3,28.8z
	 M32.3,28.4c-0.1-0.4,0-0.8,0.1-1.1c0.3-0.5,0.8-0.7,1.3-0.7c0.3,0,0.5,0.1,0.7,0.2c0.3,0.2,0.6,0.5,0.7,0.9c0.1,0.4,0,0.8-0.1,1.1
	c-0.4,0.7-1.3,0.9-2,0.5C32.6,29.1,32.4,28.8,32.3,28.4z"/>
</svg>
