<svg fill="none" height="40" viewBox="0 0 40 40" width="40" xmlns="http://www.w3.org/2000/svg" xmlns:xlink="http://www.w3.org/1999/xlink"><mask id="a" height="6" maskUnits="userSpaceOnUse" width="6" x="11" y="1"><path clip-rule="evenodd" d="m11.498 1.129h4.913v4.875h-4.913z" fill="#fff" fill-rule="evenodd"/></mask><path clip-rule="evenodd" d="m19.279 5.693v15.527h14.7s.791-15.528-14.7-15.528z" fill="#d7eff6" fill-rule="evenodd"/><path d="m8.512 32.847c2.956 2.378 6.712 3.8 10.8 3.8 5.59 0 10.556-2.658 13.708-6.779" stroke="#0074a2" stroke-linecap="round" stroke-linejoin="round" stroke-width="1.5"/><path clip-rule="evenodd" d="m6.9 34.584-1.06-3.856c-.104-.383.244-.736.628-.635l3.869 1.01c.384.1.515.579.237.861l-2.81 2.846c-.28.282-.76.157-.865-.226z" fill="#0074a2" fill-rule="evenodd"/><path d="m12.864 3.399c-6.332 2.554-10.8 8.755-10.8 16 0 2.204.414 4.31 1.167 6.247" stroke="#0074a2" stroke-linecap="round" stroke-linejoin="round" stroke-width="1.5"/><g mask="url(#a)"><path clip-rule="evenodd" d="m12.138 1.145 3.881.962c.386.096.523.572.248.858l-2.774 2.88c-.276.286-.757.167-.867-.214l-1.107-3.843c-.11-.382.234-.739.62-.643z" fill="#0074a2" fill-rule="evenodd"/></g><path d="m36.42 21.613c.093-.724.14-1.463.14-2.213 0-8.706-6.45-15.905-14.832-17.08" stroke="#0074a2" stroke-linecap="round" stroke-linejoin="round" stroke-width="1.5"/><g clip-rule="evenodd" fill-rule="evenodd"><path d="m38.743 22.082-2.738 2.915c-.272.29-.755.176-.87-.204l-1.155-3.828c-.115-.38.225-.742.611-.651l3.893.913c.387.09.53.566.259.855z" fill="#0074a2"/><path d="m29.765 19.538c0 5.791-4.695 10.486-10.486 10.486-5.792 0-10.487-4.695-10.487-10.486s4.695-10.486 10.488-10.486c5.791 0 10.486 4.695 10.486 10.486z" fill="#d7eff6"/><path d="m29.765 19.538c0 5.791-4.695 10.486-10.486 10.486-5.792 0-10.487-4.695-10.487-10.486s4.695-10.486 10.488-10.486c5.791 0 10.486 4.695 10.486 10.486z" stroke="#0074a2" stroke-linecap="round" stroke-linejoin="round" stroke-width="1.5"/></g><path d="m19.279 9.052v10.428m4.928 0h-4.928" stroke="#0074a2" stroke-linecap="round" stroke-linejoin="round" stroke-width="1.5"/></svg>