<svg width="26" height="26" viewBox="0 0 26 26" fill="none" xmlns="http://www.w3.org/2000/svg">
<path fill-rule="evenodd" clip-rule="evenodd" d="M4.07227 3.59497V14.0116H14.4889V3.59497H4.07227ZM3.55143 2.03247C2.97614 2.03247 2.50977 2.49884 2.50977 3.07414V14.5325C2.50977 15.1078 2.97614 15.5741 3.55143 15.5741H15.0098C15.5851 15.5741 16.0514 15.1078 16.0514 14.5325V3.07414C16.0514 2.49884 15.5851 2.03247 15.0098 2.03247H3.55143Z" fill="white"/>
<path fill-rule="evenodd" clip-rule="evenodd" d="M12.4049 23.9074L12.4049 21.8241L22.4011 21.824L22.4011 12.0287L24.4844 12.0286L24.4845 23.9074L12.4049 23.9074Z" fill="url(#paint0_linear_6532_32156)"/>
<path fill-rule="evenodd" clip-rule="evenodd" d="M19.1771 6.45947C19.6086 6.45947 19.9583 6.80925 19.9583 7.24072L19.9583 17.6574C19.9583 18.6642 19.1422 19.4803 18.1354 19.4803L7.71875 19.4803C7.28728 19.4803 6.9375 19.1305 6.9375 18.6991C6.9375 18.2676 7.28728 17.9178 7.71875 17.9178L18.1354 17.9178C18.2792 17.9178 18.3958 17.8012 18.3958 17.6574L18.3958 7.24072C18.3958 6.80925 18.7456 6.45947 19.1771 6.45947Z" fill="white"/>
<defs>
<linearGradient id="paint0_linear_6532_32156" x1="20.1509" y1="21.4609" x2="20.1509" y2="12.0287" gradientUnits="userSpaceOnUse">
<stop stop-color="#38CCED"/>
<stop offset="1" stop-color="#38CCED" stop-opacity="0.4"/>
</linearGradient>
</defs>
</svg>
