<svg width="48" height="48" viewBox="0 0 48 48" fill="none" xmlns="http://www.w3.org/2000/svg">
<rect y="20" width="28" height="4" fill="url(#paint0_linear_3530_40342)"/>
<path fill-rule="evenodd" clip-rule="evenodd" d="M41.1357 23.1733L41.5187 21.5099C41.6865 20.7809 41.7759 20.0191 41.7759 19.2328C41.7759 13.6575 37.2563 9.13794 31.681 9.13794C28.5931 9.13794 25.8311 10.5208 23.9747 12.7117L22.7421 14.1665L20.9016 13.6681C20.167 13.4691 19.3915 13.3621 18.5862 13.3621C13.8385 13.3621 9.96498 17.1113 9.76665 21.8086L9.68326 23.7837L7.83546 24.4862C5.00401 25.5628 3 28.3011 3 31.5C3 35.5216 6.16658 38.8053 10.1405 38.9916L10.3197 39H36.6864L36.8718 38.9921C41.3925 38.7987 45 35.0698 45 30.5C45 28.082 43.9942 25.9039 42.37 24.3524L41.1357 23.1733ZM37 41.9893V42H10V41.9883C4.43318 41.7273 0 37.1314 0 31.5C0 27.0149 2.81209 23.1866 6.76932 21.6821C7.03518 15.3853 12.2241 10.3621 18.5862 10.3621C19.6588 10.3621 20.698 10.5048 21.6858 10.7724C24.0879 7.93747 27.6743 6.13794 31.681 6.13794C38.9131 6.13794 44.7759 12.0007 44.7759 19.2328C44.7759 20.2473 44.6605 21.2348 44.4422 22.183C46.6344 24.277 48 27.229 48 30.5C48 36.6837 43.1193 41.7275 37 41.9893Z" fill="white"/>
<defs>
<linearGradient id="paint0_linear_3530_40342" x1="28" y1="20" x2="0" y2="20" gradientUnits="userSpaceOnUse">
<stop stop-color="#38CCED"/>
<stop offset="1" stop-color="#38CCED" stop-opacity="0.4"/>
</linearGradient>
</defs>
</svg>
