<svg width="25" height="25" viewBox="0 0 25 25" fill="none" xmlns="http://www.w3.org/2000/svg">
<mask id="path-1-inside-1_6532_31799" fill="white">
<path fill-rule="evenodd" clip-rule="evenodd" d="M21.875 3.125V17.7083H13.7936C13.0091 17.7083 12.2533 18.0034 11.6764 18.5348L7.96093 21.9572V19.7917C7.96093 18.6411 7.0282 17.7083 5.8776 17.7083H3.125V3.125H21.875ZM22.3958 1.5625C22.9711 1.5625 23.4375 2.02887 23.4375 2.60417V18.2292C23.4375 18.8045 22.9711 19.2708 22.3958 19.2708H13.7936C13.4013 19.2708 13.0234 19.4183 12.735 19.6841L8.14584 23.9113C7.47831 24.5261 6.39843 24.0526 6.39843 23.1451V19.7917C6.39843 19.504 6.16525 19.2708 5.8776 19.2708H2.60417C2.02887 19.2708 1.5625 18.8045 1.5625 18.2292V2.60417C1.5625 2.02887 2.02887 1.5625 2.60417 1.5625H22.3958Z"/>
</mask>
<path d="M21.875 17.7083H23.875V19.7083H21.875V17.7083ZM21.875 3.125V1.125H23.875V3.125H21.875ZM11.6764 18.5348L13.0314 20.0059L13.0314 20.0059L11.6764 18.5348ZM7.96093 21.9572L9.31595 23.4283L5.96093 26.5186V21.9572H7.96093ZM3.125 17.7083V19.7083H1.125V17.7083H3.125ZM3.125 3.125H1.125V1.125H3.125V3.125ZM12.735 19.6841L11.3799 18.2131L12.735 19.6841ZM8.14584 23.9113L6.79082 22.4402H6.79082L8.14584 23.9113ZM19.875 17.7083V3.125H23.875V17.7083H19.875ZM13.7936 15.7083H21.875V19.7083H13.7936V15.7083ZM10.3213 17.0638C11.2676 16.1922 12.507 15.7083 13.7936 15.7083V19.7083C13.5112 19.7083 13.2391 19.8145 13.0314 20.0059L10.3213 17.0638ZM6.60592 20.4862L10.3213 17.0638L13.0314 20.0059L9.31595 23.4283L6.60592 20.4862ZM9.96093 19.7917V21.9572H5.96093V19.7917H9.96093ZM5.8776 15.7083C8.13277 15.7083 9.96093 17.5365 9.96093 19.7917H5.96093C5.96093 19.7456 5.92362 19.7083 5.8776 19.7083V15.7083ZM3.125 15.7083H5.8776V19.7083H3.125V15.7083ZM5.125 3.125V17.7083H1.125V3.125H5.125ZM21.875 5.125H3.125V1.125H21.875V5.125ZM21.4375 2.60417C21.4375 3.13344 21.8666 3.5625 22.3958 3.5625V-0.4375C24.0757 -0.4375 25.4375 0.9243 25.4375 2.60417H21.4375ZM21.4375 18.2292V2.60417H25.4375V18.2292H21.4375ZM22.3958 17.2708C21.8666 17.2708 21.4375 17.6999 21.4375 18.2292H25.4375C25.4375 19.909 24.0757 21.2708 22.3958 21.2708V17.2708ZM13.7936 17.2708H22.3958V21.2708H13.7936V17.2708ZM11.3799 18.2131C12.0377 17.6072 12.8993 17.2708 13.7936 17.2708V21.2708C13.9034 21.2708 14.0092 21.2295 14.09 21.1551L11.3799 18.2131ZM6.79082 22.4402L11.3799 18.2131L14.09 21.1551L9.50085 25.3823L6.79082 22.4402ZM8.39843 23.1451C8.39843 22.3101 7.40495 21.8745 6.79082 22.4402L9.50085 25.3823C7.55167 27.1777 4.39843 25.7952 4.39843 23.1451H8.39843ZM8.39843 19.7917V23.1451H4.39843V19.7917H8.39843ZM5.8776 17.2708C7.26982 17.2708 8.39843 18.3995 8.39843 19.7917H4.39843C4.39843 20.6086 5.06068 21.2708 5.8776 21.2708V17.2708ZM2.60417 17.2708H5.8776V21.2708H2.60417V17.2708ZM3.5625 18.2292C3.5625 17.6999 3.13344 17.2708 2.60417 17.2708V21.2708C0.924301 21.2708 -0.4375 19.909 -0.4375 18.2292H3.5625ZM3.5625 2.60417V18.2292H-0.4375V2.60417H3.5625ZM2.60417 3.5625C3.13344 3.5625 3.5625 3.13344 3.5625 2.60417H-0.4375C-0.4375 0.9243 0.924303 -0.4375 2.60417 -0.4375V3.5625ZM22.3958 3.5625H2.60417V-0.4375H22.3958V3.5625Z" fill="white" mask="url(#path-1-inside-1_6532_31799)"/>
<g clip-path="url(#clip0_6532_31799)">
<path d="M14.5461 10.0026C14.0332 9.98756 13.5172 9.98156 13.0043 9.97856C13.0043 9.46564 13.0013 8.94972 12.9863 8.4368L12.9623 7.56093C12.9473 7.26997 12.9383 6.97601 12.9173 6.68506H12.6714C12.6504 6.97601 12.6414 7.26997 12.6264 7.56093L12.6024 8.4368C12.5964 8.67676 12.5934 8.91972 12.5904 9.15969C12.4944 8.93772 12.4014 8.71575 12.3024 8.49679L11.9455 7.69891C11.8195 7.43495 11.6995 7.16799 11.5705 6.90703L11.3426 7.00301C11.4356 7.27897 11.5375 7.55193 11.6365 7.82789L11.9485 8.64676C12.0355 8.87173 12.1254 9.0967 12.2154 9.31866C12.0445 9.15069 11.8705 8.98271 11.6965 8.81474L11.0606 8.21183C10.8446 8.01686 10.6317 7.81589 10.4097 7.62392L10.2357 7.79789C10.4277 8.01986 10.6287 8.22983 10.8236 8.44879L11.4266 9.0847C11.5915 9.25867 11.7595 9.43265 11.9305 9.60362C11.7055 9.51363 11.4835 9.42365 11.2586 9.33666L10.4397 9.02471C10.1637 8.92572 9.89079 8.82374 9.61483 8.73075L9.51884 8.95872C9.7798 9.0907 10.0468 9.20768 10.3107 9.33366L11.1086 9.69061C11.3276 9.78959 11.5495 9.88258 11.7715 9.97856C11.5315 9.98156 11.2886 9.98456 11.0486 9.99056L10.1727 10.0146C9.88179 10.0296 9.58783 10.0386 9.29688 10.0596V10.3055C9.58783 10.3265 9.88179 10.3355 10.1727 10.3505L11.0486 10.3745C11.5615 10.3895 12.0775 10.3895 12.5904 10.3925C12.5934 10.9054 12.5964 11.4213 12.6144 11.9343L12.6414 12.8101C12.6564 13.1011 12.6654 13.3951 12.6864 13.686H12.9113C12.9323 13.3951 12.9413 13.1011 12.9563 12.8101L12.9833 11.9343C12.9923 11.6883 12.9953 11.4393 12.9983 11.1934C13.0973 11.4213 13.1933 11.6463 13.2953 11.8713L13.6552 12.6692C13.7812 12.9331 13.9012 13.2001 14.0332 13.461L14.2401 13.3741C14.1471 13.0951 14.0452 12.8221 13.9492 12.5462L13.6402 11.7273C13.5532 11.4963 13.4632 11.2654 13.3703 11.0374C13.5472 11.2084 13.7242 11.3824 13.9042 11.5503L14.5431 12.1502C14.7591 12.3452 14.972 12.5462 15.194 12.7351L15.353 12.5762C15.161 12.3542 14.963 12.1412 14.7681 11.9253L14.1681 11.2864C14.0002 11.1064 13.8262 10.9294 13.6552 10.7524C13.8862 10.8424 14.1142 10.9354 14.3451 11.0224L15.164 11.3314C15.44 11.4273 15.7129 11.5323 15.9919 11.6223L16.0789 11.4153C15.8179 11.2834 15.5509 11.1634 15.287 11.0374L14.4891 10.6775C14.2641 10.5755 14.0362 10.4765 13.8112 10.3805C14.0572 10.3775 14.3061 10.3745 14.5521 10.3655L15.428 10.3385C15.7189 10.3235 16.0129 10.3145 16.3038 10.2935V10.0686C16.0129 10.0476 15.7189 10.0386 15.428 10.0236L14.5461 10.0026Z" fill="white"/>
<path d="M12.7936 4.45947C9.63507 4.45947 7.06445 7.03009 7.06445 10.1886C7.06445 13.3471 9.63507 15.9178 12.7936 15.9178C15.9521 15.9178 18.5227 13.3471 18.5227 10.1886C18.5257 7.03009 15.9551 4.45947 12.7936 4.45947ZM12.7936 15.3838C9.92902 15.3838 7.59837 13.0532 7.59837 10.1886C7.59837 7.32404 9.92902 4.99339 12.7936 4.99339C15.6582 4.99339 17.9888 7.32404 17.9888 10.1886C17.9888 13.0532 15.6582 15.3838 12.7936 15.3838Z" fill="white"/>
</g>
<defs>
<clipPath id="clip0_6532_31799">
<rect width="13.0208" height="13.0208" fill="white" transform="translate(6.25 3.64575)"/>
</clipPath>
</defs>
</svg>
