<svg width="25" height="26" viewBox="0 0 25 26" fill="none" xmlns="http://www.w3.org/2000/svg">
<rect x="8.33398" y="0.469971" width="14.5833" height="2.08333" transform="rotate(90 8.33398 0.469971)" fill="url(#paint0_linear_6532_32114)"/>
<path fill-rule="evenodd" clip-rule="evenodd" d="M2.64756 6.64627C1.22462 6.36889 1.22059 4.46063 2.64237 4.17798L12.2087 2.27616C12.3941 2.23928 12.5858 2.23975 12.7711 2.27754L22.3551 4.23239C23.7753 4.52207 23.7606 6.43034 22.3361 6.70064L12.7697 8.51583C12.592 8.54954 12.4089 8.54908 12.2315 8.51449L2.64756 6.64627ZM4.22897 5.40919L12.5048 7.02241L20.7615 5.45573L12.4857 3.76771L4.22897 5.40919Z" fill="white"/>
<path fill-rule="evenodd" clip-rule="evenodd" d="M1.67521 10.6009C1.76066 10.173 2.16834 9.89714 2.58579 9.98473L12.4495 12.0544C12.4835 12.0615 12.5186 12.0615 12.5526 12.0544L22.4163 9.98473C22.8337 9.89714 23.2414 10.173 23.3269 10.6009C23.4123 11.0288 23.1432 11.4467 22.7257 11.5343L12.8621 13.604C12.6239 13.654 12.3782 13.654 12.14 13.604L2.27634 11.5343C1.8589 11.4467 1.58976 11.0288 1.67521 10.6009Z" fill="white"/>
<path fill-rule="evenodd" clip-rule="evenodd" d="M1.73576 15.9054C1.82121 15.4775 2.22889 15.2016 2.64634 15.2892L12.51 17.3588C12.544 17.366 12.5791 17.366 12.6132 17.3588L22.4768 15.2892C22.8943 15.2016 23.302 15.4775 23.3874 15.9054C23.4729 16.3333 23.2037 16.7512 22.7863 16.8388L12.9226 18.9084C12.6844 18.9584 12.4388 18.9584 12.2006 18.9084L2.33689 16.8388C1.91945 16.7512 1.65031 16.3333 1.73576 15.9054Z" fill="white"/>
<path fill-rule="evenodd" clip-rule="evenodd" d="M1.67521 21.0665C1.76066 20.6386 2.16834 20.3627 2.58579 20.4503L12.4495 22.52C12.4835 22.5271 12.5186 22.5271 12.5526 22.52L22.4163 20.4503C22.8337 20.3627 23.2414 20.6386 23.3269 21.0665C23.4123 21.4944 23.1432 21.9123 22.7257 21.9999L12.8621 24.0696C12.6239 24.1195 12.3782 24.1195 12.14 24.0696L2.27634 21.9999C1.8589 21.9123 1.58976 21.4944 1.67521 21.0665Z" fill="white"/>
<defs>
<linearGradient id="paint0_linear_6532_32114" x1="22.9173" y1="0.469971" x2="8.33398" y2="0.46997" gradientUnits="userSpaceOnUse">
<stop stop-color="#38CCED"/>
<stop offset="1" stop-color="#38CCED" stop-opacity="0.4"/>
</linearGradient>
</defs>
</svg>
