<svg width="43" height="40" viewBox="0 0 43 40" fill="none" xmlns="http://www.w3.org/2000/svg">
<path fill-rule="evenodd" clip-rule="evenodd" d="M8.5 29C12.0899 29 15 26.0899 15 22.5C15 18.9102 12.0899 16 8.5 16C4.91015 16 2 18.9102 2 22.5C2 26.0899 4.91015 29 8.5 29Z" fill="#D7EFF6"/>
<path fill-rule="evenodd" clip-rule="evenodd" d="M32.5 29C36.0899 29 39 26.0899 39 22.5C39 18.9102 36.0899 16 32.5 16C28.9101 16 26 18.9102 26 22.5C26 26.0899 28.9101 29 32.5 29Z" fill="#D7EFF6"/>
<path fill-rule="evenodd" clip-rule="evenodd" d="M20.5 40C24.0899 40 27 37.0899 27 33.5C27 29.9102 24.0899 27 20.5 27C16.9101 27 14 29.9102 14 33.5C14 37.0899 16.9101 40 20.5 40Z" fill="#D7EFF6"/>
<path fill-rule="evenodd" clip-rule="evenodd" d="M7.3465 19.3228C7.3465 16.631 9.52859 14.4492 12.2203 14.4492C14.9119 14.4492 17.094 16.631 17.094 19.3228C17.094 22.0146 14.912 24.1966 12.2203 24.1966C9.52855 24.1966 7.3465 22.0146 7.3465 19.3228ZM12.2203 15.9492C10.3569 15.9492 8.8465 17.4595 8.8465 19.3228C8.8465 21.1862 10.357 22.6966 12.2203 22.6966C14.0835 22.6966 15.594 21.1862 15.594 19.3228C15.594 17.4595 14.0835 15.9492 12.2203 15.9492Z" fill="#0074A2"/>
<path fill-rule="evenodd" clip-rule="evenodd" d="M19.6262 30.2585C19.6262 27.5667 21.8082 25.3847 24.5 25.3847C27.1918 25.3847 29.3738 27.5667 29.3738 30.2585C29.3738 32.9503 27.1918 35.1324 24.5 35.1324C21.8082 35.1324 19.6262 32.9503 19.6262 30.2585ZM24.5 26.8847C22.6366 26.8847 21.1262 28.3952 21.1262 30.2585C21.1262 32.1219 22.6366 33.6324 24.5 33.6324C26.3634 33.6324 27.8738 32.1219 27.8738 30.2585C27.8738 28.3952 26.3634 26.8847 24.5 26.8847Z" fill="#0074A2"/>
<path fill-rule="evenodd" clip-rule="evenodd" d="M31.906 19.3228C31.906 16.631 34.0881 14.4492 36.7797 14.4492C39.4714 14.4492 41.6535 16.631 41.6535 19.3228C41.6535 22.0146 39.4714 24.1966 36.7797 24.1966C34.088 24.1966 31.906 22.0146 31.906 19.3228ZM36.7797 15.9492C34.9165 15.9492 33.406 17.4595 33.406 19.3228C33.406 21.1862 34.9165 22.6966 36.7797 22.6966C38.643 22.6966 40.1535 21.1862 40.1535 19.3228C40.1535 17.4595 38.6431 15.9492 36.7797 15.9492Z" fill="#0074A2"/>
<path fill-rule="evenodd" clip-rule="evenodd" d="M24.5 0.346497C24.9142 0.346497 25.25 0.682283 25.25 1.0965V25.6269C25.25 26.0411 24.9142 26.3769 24.5 26.3769C24.0858 26.3769 23.75 26.0411 23.75 25.6269V1.0965C23.75 0.682283 24.0858 0.346497 24.5 0.346497Z" fill="#0074A2"/>
<path fill-rule="evenodd" clip-rule="evenodd" d="M30.6399 0.346497C31.0541 0.346524 31.3899 0.682333 31.3898 1.09655C31.3897 2.50951 31.5465 4.92518 32.0824 7.56797C32.6195 10.2168 33.5274 13.0421 35 15.3124C35.2254 15.6599 35.1264 16.1243 34.7789 16.3497C34.4314 16.5751 33.9669 16.4762 33.7415 16.1287C32.1264 13.6387 31.1687 10.6101 30.6123 7.86608C30.0546 5.11603 29.8897 2.59983 29.8898 1.09645C29.8899 0.682233 30.2257 0.346469 30.6399 0.346497Z" fill="#0074A2"/>
<path fill-rule="evenodd" clip-rule="evenodd" d="M18.3701 0.346564C18.7843 0.352081 19.1156 0.69231 19.1101 1.10649C19.0389 6.44742 18.924 11.4385 15.5541 16.1564C15.3133 16.4935 14.8449 16.5716 14.5079 16.3308C14.1708 16.0901 14.0927 15.6216 14.3335 15.2846C17.3965 10.9964 17.5385 6.46729 17.6102 1.08651C17.6157 0.672332 17.956 0.341048 18.3701 0.346564Z" fill="#0074A2"/>
</svg>
