<?xml version="1.0" encoding="UTF-8"?>
<svg width="76px" height="76px" viewBox="0 0 76 76" version="1.1" xmlns="http://www.w3.org/2000/svg" xmlns:xlink="http://www.w3.org/1999/xlink">
    <!-- Generator: Sketch 55.2 (78181) - https://sketchapp.com -->
    <title>Group 5</title>
    <desc>Created with Sketch.</desc>
    <defs>
        <circle id="path-1" cx="30" cy="30" r="30"></circle>
        <filter x="-21.7%" y="-18.3%" width="143.3%" height="143.3%" filterUnits="objectBoundingBox" id="filter-2">
            <feOffset dx="0" dy="2" in="SourceAlpha" result="shadowOffsetOuter1"></feOffset>
            <feGaussianBlur stdDeviation="4" in="shadowOffsetOuter1" result="shadowBlurOuter1"></feGaussianBlur>
            <feComposite in="shadowBlurOuter1" in2="SourceAlpha" operator="out" result="shadowBlurOuter1"></feComposite>
            <feColorMatrix values="0 0 0 0 0.485337409   0 0 0 0 0.485337409   0 0 0 0 0.485337409  0 0 0 0.277616914 0" type="matrix" in="shadowBlurOuter1"></feColorMatrix>
        </filter>
    </defs>
    <g id="Developer" stroke="none" stroke-width="1" fill="none" fill-rule="evenodd">
        <g id="Developer-interior-ui-dark-blue" transform="translate(-1288.000000, -292.000000)">
            <g id="Group-5" transform="translate(1296.000000, 298.000000)">
                <g id="Oval">
                    <use fill="black" fill-opacity="1" filter="url(#filter-2)" xlink:href="#path-1"></use>
                    <circle stroke="#192048" stroke-width="1" stroke-linejoin="square" fill="#FFFFFF" fill-rule="evenodd" cx="30" cy="30" r="29.5"></circle>
                </g>
                <g id="Group-3" transform="translate(17.000000, 15.000000)" fill="#192048">
                    <path d="M25.9894375,24.6895125 C25.9894375,26.0205763 24.9075925,27.1420425 23.5779788,27.1420425 L4.27630375,27.1420425 C2.94524,27.1420425 1.864845,26.0191263 1.864845,24.6895125 L1.86343125,5.3878375 C1.86343125,4.05677375 2.94527625,3.01458625 4.27489,3.01458625 L15.5337775,3.01458625 L15.5351913,1.40740625 L4.27630375,1.40740625 C2.05881875,1.40740625 0.25617875,3.17176625 0.25617875,5.38910625 L0.25617875,24.6893313 C0.25617875,26.9068163 2.06019625,28.7489688 4.27630375,28.7489688 L23.5765288,28.7489688 C25.7940138,28.7489688 27.5966538,26.90533 27.5966538,24.6893313 L27.5966538,13.4703188 L25.98806,13.4703188 L25.98806,24.6893313 L25.9894375,24.6895125 Z" id="Fill-1"></path>
                    <path d="M27.8019375,1.1625375 C26.5869825,-0.05383125 24.4686413,-0.05383125 23.2522,1.1625375 L12.463475,11.9512625 C12.3601045,12.054633 12.2864735,12.1834872 12.2524891,12.3236588 L11.1168491,16.8733963 C11.0488804,17.1466886 11.1295946,17.436975 11.327835,17.6380538 C11.4807665,17.7909853 11.6860865,17.8731132 11.895655,17.8731132 C11.9607926,17.8731132 12.0259303,17.8660336 12.0910643,17.8490396 L16.6408018,16.7119859 C16.7824015,16.6765877 16.9112594,16.6029531 17.013198,16.501 L27.801923,5.712275 C28.4094005,5.1047975 28.745003,4.29769125 28.745003,3.4381675 C28.745003,2.57723 28.4108215,1.7700875 27.801923,1.16264625 L27.8019375,1.1625375 Z M16.034825,15.2050625 L13.001715,15.962615 L13.7592675,12.929505 L22.68438,4.0043925 L24.9584875,6.2785 L16.034825,15.2050625 Z M26.664775,4.5736625 L26.096955,5.1414825 L23.8228475,2.867375 L24.3906675,2.299555 C24.998145,1.6920775 26.0587475,1.6920775 26.664775,2.299555 C26.9678033,2.60258325 27.136315,3.00614 27.136315,3.43660875 C27.136315,3.8670775 26.9678105,4.269235 26.664775,4.5736625 Z" id="Fill-2"></path>
                </g>
            </g>
        </g>
    </g>
</svg>