<svg width="25" height="25" viewBox="0 0 25 25" fill="none" xmlns="http://www.w3.org/2000/svg">
<rect y="17.1875" width="14.5833" height="2.08333" fill="url(#paint0_linear_6532_31539)"/>
<path fill-rule="evenodd" clip-rule="evenodd" d="M4.6875 1.5625V23.4375H20.3125V6.91964L14.6875 1.5625H4.6875ZM4.16667 0C3.59137 0 3.125 0.466371 3.125 1.04167V23.9583C3.125 24.5336 3.59137 25 4.16667 25H20.8333C21.4086 25 21.875 24.5336 21.875 23.9583V6.69643C21.875 6.41135 21.7582 6.13873 21.5517 5.94212L15.6142 0.287356C15.4205 0.10289 15.1633 0 14.8958 0H4.16667Z" fill="white"/>
<path fill-rule="evenodd" clip-rule="evenodd" d="M15.1045 0.78125C15.536 0.78125 15.8857 1.13103 15.8857 1.5625V6.25C15.8857 6.39382 16.0023 6.51042 16.1462 6.51042H20.8337C21.2651 6.51042 21.6149 6.86019 21.6149 7.29167C21.6149 7.72314 21.2651 8.07292 20.8337 8.07292H16.1462C15.1394 8.07292 14.3232 7.25677 14.3232 6.25V1.5625C14.3232 1.13103 14.673 0.78125 15.1045 0.78125Z" fill="white"/>
<defs>
<linearGradient id="paint0_linear_6532_31539" x1="14.5833" y1="17.1875" x2="0" y2="17.1875" gradientUnits="userSpaceOnUse">
<stop stop-color="#38CCED"/>
<stop offset="1" stop-color="#38CCED" stop-opacity="0.4"/>
</linearGradient>
</defs>
</svg>
