<svg width="25" height="25" viewBox="0 0 25 25" fill="none" xmlns="http://www.w3.org/2000/svg">
<g clip-path="url(#clip0_6532_31567)">
<rect x="18.75" width="14.5833" height="2.08333" transform="rotate(90 18.75 0)" fill="url(#paint0_linear_6532_31567)"/>
<path fill-rule="evenodd" clip-rule="evenodd" d="M1.30176 3.64567C1.30176 2.6389 2.11791 1.82275 3.12467 1.82275H21.8747C22.8814 1.82275 23.6976 2.6389 23.6976 3.64567V15.6248C23.6976 16.6316 22.8814 17.4478 21.8747 17.4478H15.3643V15.8853H21.8747C22.0185 15.8853 22.1351 15.7687 22.1351 15.6248V3.64567C22.1351 3.50185 22.0185 3.38525 21.8747 3.38525H3.12467C2.98085 3.38525 2.86426 3.50185 2.86426 3.64567V15.6248C2.86426 15.7687 2.98085 15.8853 3.12467 15.8853H5.46842V17.4478H3.12467C2.11791 17.4478 1.30176 16.6316 1.30176 15.6248V3.64567Z" fill="white"/>
<path fill-rule="evenodd" clip-rule="evenodd" d="M3.27006 21.875L17.5626 21.875C16.8788 18.2508 13.8806 15.625 10.4163 15.625C6.95202 15.625 3.95383 18.2508 3.27006 21.875ZM1.61603 22.3973C2.1048 17.7091 5.85835 14.0625 10.4163 14.0625C14.9743 14.0625 18.7278 17.7091 19.2166 22.3973C19.2762 22.9695 18.8041 23.4375 18.2288 23.4375L2.60381 23.4375C2.02851 23.4375 1.55637 22.9695 1.61603 22.3973Z" fill="white"/>
<path fill-rule="evenodd" clip-rule="evenodd" d="M10.4167 12.5001C11.8549 12.5001 13.0208 11.3342 13.0208 9.89591C13.0208 8.45767 11.8549 7.29175 10.4167 7.29175C8.97843 7.29175 7.8125 8.45767 7.8125 9.89591C7.8125 11.3342 8.97843 12.5001 10.4167 12.5001ZM10.4167 14.0626C12.7179 14.0626 14.5833 12.1971 14.5833 9.89591C14.5833 7.59473 12.7179 5.72925 10.4167 5.72925C8.11548 5.72925 6.25 7.59473 6.25 9.89591C6.25 12.1971 8.11548 14.0626 10.4167 14.0626Z" fill="white"/>
</g>
<defs>
<linearGradient id="paint0_linear_6532_31567" x1="33.3333" y1="4.57615e-07" x2="18.75" y2="-5.68251e-07" gradientUnits="userSpaceOnUse">
<stop stop-color="#38CCED"/>
<stop offset="1" stop-color="#38CCED" stop-opacity="0.4"/>
</linearGradient>
<clipPath id="clip0_6532_31567">
<rect width="25" height="25" fill="white"/>
</clipPath>
</defs>
</svg>
