<svg fill="none" height="40" viewBox="0 0 40 40" width="40" xmlns="http://www.w3.org/2000/svg"><path clip-rule="evenodd" d="m23.5 31c6.351 0 11.5-5.149 11.5-11.5s-5.149-11.5-11.5-11.5-11.5 5.149-11.5 11.5 5.149 11.5 11.5 11.5z" fill="#d7eff6" fill-rule="evenodd"/><g stroke-linecap="round" stroke-linejoin="round" stroke-width="1.5"><path d="m9.137 11.444h3.686c5.276 0 8.657 8.8 13.798 8.8h4.39" stroke="#0074a2"/><path d="m9.137 29.043h3.686c5.276 0 8.657-8.8 13.798-8.8h4.39" stroke="#0074a2"/><path clip-rule="evenodd" d="m5.385 8.059c1.869 0 3.384 1.515 3.384 3.385 0 1.869-1.515 3.384-3.384 3.384-1.87 0-3.385-1.515-3.385-3.384 0-1.87 1.515-3.385 3.385-3.385zm29.107 8.8c1.869 0 3.384 1.515 3.384 3.384 0 1.87-1.515 3.385-3.384 3.385-1.87 0-3.385-1.515-3.385-3.385 0-1.869 1.516-3.384 3.385-3.384zm-29.107 8.8c1.869 0 3.384 1.515 3.384 3.384 0 1.87-1.515 3.385-3.384 3.385-1.87 0-3.385-1.516-3.385-3.385 0-1.87 1.515-3.384 3.385-3.384z" fill-rule="evenodd" stroke="#0074a3"/></g></svg>