<svg width="40" height="40" viewBox="0 0 40 40" fill="none" xmlns="http://www.w3.org/2000/svg">
<path d="M30.1336 34.303H8.56803C7.53348 34.303 6.69519 33.4647 6.69519 32.4302V10.8646C6.69519 9.83005 7.53348 8.99176 8.56803 8.99176H30.1336C31.1681 8.99176 32.0064 9.83005 32.0064 10.8646V32.4302C32.0064 33.4647 31.1681 34.303 30.1336 34.303Z" fill="#D7EFF6"/>
<path d="M22.4277 12.4839L29.8372 27.3042" stroke="#0074A2" stroke-width="1.5" stroke-miterlimit="10" stroke-linecap="round" stroke-linejoin="round"/>
<path d="M9.77148 27.3042L17.1823 12.4839" stroke="#0074A2" stroke-width="1.5" stroke-miterlimit="10" stroke-linecap="round" stroke-linejoin="round"/>
<path d="M13.0143 32.5497H26.5959" stroke="#0074A2" stroke-width="1.5" stroke-miterlimit="10" stroke-linecap="round" stroke-linejoin="round"/>
<path d="M22.8879 12.471H15.8138C14.7792 12.471 13.9409 11.6327 13.9409 10.5981V3.52268C13.9409 2.48813 14.7792 1.64984 15.8138 1.64984H22.8879C23.9224 1.64984 24.7607 2.48813 24.7607 3.52268V10.5968C24.7607 11.6314 23.9224 12.471 22.8879 12.471Z" stroke="#0074A2" stroke-width="1.5" stroke-miterlimit="10" stroke-linecap="round" stroke-linejoin="round"/>
<path d="M35.5429 38.3502H28.4688C27.4342 38.3502 26.5959 37.5119 26.5959 36.4773V29.4032C26.5959 28.3686 27.4342 27.5303 28.4688 27.5303H35.5429C36.5775 27.5303 37.4158 28.3686 37.4158 29.4032V36.4773C37.4171 37.5119 36.5775 38.3502 35.5429 38.3502Z" stroke="#0074A2" stroke-width="1.5" stroke-miterlimit="10" stroke-linecap="round" stroke-linejoin="round"/>
<path d="M10.5968 38.3502H3.52268C2.48813 38.3502 1.64984 37.5119 1.64984 36.4773V29.4032C1.64984 28.3686 2.48813 27.5303 3.52268 27.5303H10.5968C11.6314 27.5303 12.4697 28.3686 12.4697 29.4032V36.4773C12.471 37.5119 11.6314 38.3502 10.5968 38.3502Z" stroke="#0074A2" stroke-width="1.5" stroke-miterlimit="10" stroke-linecap="round" stroke-linejoin="round"/>
</svg>
