<svg width="25" height="25" viewBox="0 0 25 25" fill="none" xmlns="http://www.w3.org/2000/svg">
<rect x="6.77148" width="14.5833" height="2.08333" transform="rotate(90 6.77148 0)" fill="url(#paint0_linear_6526_31164)"/>
<path fill-rule="evenodd" clip-rule="evenodd" d="M11.6629 6.42142C8.69995 3.80537 4.50775 4.32027 2.00098 4.8808C1.90643 4.90194 1.82324 4.99212 1.82324 5.11869V17.7039C1.82324 17.8476 1.95238 17.9895 2.13453 17.9808C5.21222 17.8341 7.64613 18.162 9.45779 18.7138C10.3451 18.984 11.1038 19.3146 11.7191 19.6828V6.57133C11.7191 6.49349 11.6886 6.44416 11.6629 6.42142ZM1.66001 3.35595C4.18098 2.79225 9.10291 2.07677 12.697 5.25013C13.0906 5.59764 13.2816 6.08975 13.2816 6.57133V21.3541C13.2816 21.6916 13.0648 21.991 12.7441 22.0963C12.4233 22.2017 12.0713 22.0891 11.8712 21.8172C11.5342 21.3594 10.6399 20.7072 9.00255 20.2085C7.39265 19.7182 5.14223 19.4017 2.20892 19.5415C1.17444 19.5908 0.260742 18.7782 0.260742 17.7039V5.11869C0.260742 4.29044 0.822753 3.54317 1.66001 3.35595Z" fill="white"/>
<path fill-rule="evenodd" clip-rule="evenodd" d="M13.3381 6.42142C16.301 3.80537 20.4932 4.32027 23 4.8808C23.0946 4.90194 23.1777 4.99212 23.1777 5.11869V17.7039C23.1777 17.8476 23.0486 17.9895 22.8665 17.9808C19.7888 17.8341 17.3548 18.162 15.5432 18.7138C14.6559 18.984 13.8972 19.3146 13.2819 19.6828V6.57133C13.2819 6.49349 13.3123 6.44416 13.3381 6.42142ZM23.341 3.35595C20.82 2.79225 15.8981 2.07677 12.3039 5.25013C11.9103 5.59764 11.7194 6.08975 11.7194 6.57133V21.3541C11.7194 21.6916 11.9362 21.991 12.2569 22.0963C12.5776 22.2017 12.9297 22.0891 13.1298 21.8172C13.4668 21.3594 14.361 20.7072 15.9984 20.2085C17.6083 19.7182 19.8587 19.4017 22.7921 19.5415C23.8265 19.5908 24.7402 18.7782 24.7402 17.7039V5.11869C24.7402 4.29044 24.1782 3.54317 23.341 3.35595Z" fill="white"/>
<path fill-rule="evenodd" clip-rule="evenodd" d="M23.9587 16.4062C24.3901 16.4062 24.7399 16.756 24.7399 17.1875V20.3125C24.7399 21.3193 23.9238 22.1354 22.917 22.1354H2.08366C1.07689 22.1354 0.260742 21.3193 0.260742 20.3125V17.8454C0.260742 17.4139 0.61052 17.0641 1.04199 17.0641C1.47346 17.0641 1.82324 17.4139 1.82324 17.8454V20.3125C1.82324 20.4563 1.93983 20.5729 2.08366 20.5729H22.917C23.0608 20.5729 23.1774 20.4563 23.1774 20.3125V17.1875C23.1774 16.756 23.5272 16.4062 23.9587 16.4062Z" fill="white"/>
<defs>
<linearGradient id="paint0_linear_6526_31164" x1="21.3548" y1="4.57615e-07" x2="6.77148" y2="-5.68251e-07" gradientUnits="userSpaceOnUse">
<stop stop-color="#38CCED"/>
<stop offset="1" stop-color="#38CCED" stop-opacity="0.4"/>
</linearGradient>
</defs>
</svg>
