<svg width="25" height="25" viewBox="0 0 25 25" fill="none" xmlns="http://www.w3.org/2000/svg">
<rect x="5.20801" y="12.5" width="14.5833" height="2.08333" fill="url(#paint0_linear_6526_31239)"/>
<path fill-rule="evenodd" clip-rule="evenodd" d="M7.03125 5.72925C7.03125 2.70894 9.47969 0.260498 12.5 0.260498C15.5203 0.260498 17.9688 2.70894 17.9688 5.72925V14.0626C17.9688 17.0829 15.5203 19.5313 12.5 19.5313C9.47969 19.5313 7.03125 17.0829 7.03125 14.0626V5.72925ZM12.5 1.823C10.3426 1.823 8.59375 3.57189 8.59375 5.72925V14.0626C8.59375 16.2199 10.3426 17.9688 12.5 17.9688C14.6574 17.9688 16.4062 16.2199 16.4062 14.0626V5.72925C16.4062 3.57189 14.6574 1.823 12.5 1.823Z" fill="white"/>
<path fill-rule="evenodd" clip-rule="evenodd" d="M12.5387 18.2292C12.9702 18.2292 13.32 18.579 13.32 19.0105V23.1772H17.1872C17.6186 23.1772 17.9684 23.5269 17.9684 23.9584C17.9684 24.3899 17.6186 24.7397 17.1872 24.7397H8.33301C7.90154 24.7397 7.55176 24.3899 7.55176 23.9584C7.55176 23.5269 7.90154 23.1772 8.33301 23.1772H11.7575V19.0105C11.7575 18.579 12.1073 18.2292 12.5387 18.2292Z" fill="white"/>
<defs>
<linearGradient id="paint0_linear_6526_31239" x1="19.7913" y1="12.5" x2="5.20801" y2="12.5" gradientUnits="userSpaceOnUse">
<stop stop-color="#38CCED"/>
<stop offset="1" stop-color="#38CCED" stop-opacity="0.4"/>
</linearGradient>
</defs>
</svg>
