<svg width="40" height="40" viewBox="0 0 40 40" fill="none" xmlns="http://www.w3.org/2000/svg">
<path fill-rule="evenodd" clip-rule="evenodd" d="M0 4.49152V14.2664H6.08L9.77492 10.5178V4.49152H0Z" fill="#D7EFF6"/>
<path fill-rule="evenodd" clip-rule="evenodd" d="M12.3482 20.5211H6.26819V10.7462H16.0431V16.7725" fill="#D7EFF6"/>
<path fill-rule="evenodd" clip-rule="evenodd" d="M18.6163 26.7759H12.5363V17.001H22.3112V23.0271" fill="#D7EFF6"/>
<path fill-rule="evenodd" clip-rule="evenodd" d="M24.8845 33.0306H18.8045V23.2556H28.5794V29.2819" fill="#D7EFF6"/>
<path fill-rule="evenodd" clip-rule="evenodd" d="M25.0727 39.2853H34.8476V29.5104H25.0727V39.2853Z" fill="#D7EFF6"/>
<path fill-rule="evenodd" clip-rule="evenodd" d="M2.30005 2.06107C2.30005 1.64685 2.63584 1.31107 3.05005 1.31107H12.825C13.2392 1.31107 13.575 1.64685 13.575 2.06107V8.0873C13.575 8.50152 13.2392 8.8373 12.825 8.8373C12.4108 8.8373 12.075 8.50152 12.075 8.0873V2.81107H3.80005V11.086H9.13005C9.54426 11.086 9.88005 11.4218 9.88005 11.836C9.88005 12.2502 9.54426 12.586 9.13005 12.586H3.05005C2.63584 12.586 2.30005 12.2502 2.30005 11.836V2.06107Z" fill="#0074A2"/>
<path fill-rule="evenodd" clip-rule="evenodd" d="M8.56818 8.31583C8.56818 7.90161 8.90396 7.56583 9.31818 7.56583H19.0931C19.5073 7.56583 19.8431 7.90161 19.8431 8.31583V14.3419C19.8431 14.7562 19.5073 15.0919 19.0931 15.0919C18.6789 15.0919 18.3431 14.7562 18.3431 14.3419V9.06583H10.0682V17.3407H15.3983C15.8125 17.3407 16.1483 17.6765 16.1483 18.0907C16.1483 18.505 15.8125 18.8407 15.3983 18.8407H9.31818C8.90396 18.8407 8.56818 18.505 8.56818 18.0907V8.31583Z" fill="#0074A2"/>
<path fill-rule="evenodd" clip-rule="evenodd" d="M14.8365 14.5705C14.8365 14.1563 15.1723 13.8205 15.5865 13.8205H25.3614C25.7756 13.8205 26.1114 14.1563 26.1114 14.5705V20.5967C26.1114 21.0109 25.7756 21.3467 25.3614 21.3467C24.9472 21.3467 24.6114 21.0109 24.6114 20.5967V15.3205H16.3365V23.5954H21.6665C22.0807 23.5954 22.4165 23.9312 22.4165 24.3454C22.4165 24.7596 22.0807 25.0954 21.6665 25.0954H15.5865C15.1723 25.0954 14.8365 24.7596 14.8365 24.3454V14.5705Z" fill="#0074A2"/>
<path fill-rule="evenodd" clip-rule="evenodd" d="M21.1046 20.8253C21.1046 20.4111 21.4404 20.0753 21.8546 20.0753H31.6295C32.0437 20.0753 32.3795 20.4111 32.3795 20.8253V26.8515C32.3795 27.2657 32.0437 27.6015 31.6295 27.6015C31.2153 27.6015 30.8795 27.2657 30.8795 26.8515V21.5753H22.6046V29.8502H27.9346C28.3488 29.8502 28.6846 30.186 28.6846 30.6002C28.6846 31.0144 28.3488 31.3502 27.9346 31.3502H21.8546C21.4404 31.3502 21.1046 31.0144 21.1046 30.6002V20.8253Z" fill="#0074A2"/>
<path fill-rule="evenodd" clip-rule="evenodd" d="M27.3728 27.08C27.3728 26.6658 27.7086 26.33 28.1228 26.33H37.8977C38.3119 26.33 38.6477 26.6658 38.6477 27.08V36.8549C38.6477 37.2691 38.3119 37.6049 37.8977 37.6049H28.1228C27.7086 37.6049 27.3728 37.2691 27.3728 36.8549V27.08ZM28.8728 27.83V36.1049H37.1477V27.83H28.8728Z" fill="#0074A2"/>
</svg>
