<svg width="25" height="25" viewBox="0 0 25 25" fill="none" xmlns="http://www.w3.org/2000/svg">
<path fill-rule="evenodd" clip-rule="evenodd" d="M22.9479 5.69757C23.253 6.00267 23.253 6.49733 22.9479 6.80243L15.1354 14.6149C14.8303 14.92 14.3357 14.92 14.0306 14.6149C13.7255 14.3098 13.7255 13.8152 14.0306 13.5101L21.8431 5.69757C22.1482 5.39248 22.6428 5.39248 22.9479 5.69757Z" fill="white"/>
<rect y="5.729" width="14.5833" height="2.08333" fill="url(#paint0_linear_6526_31224)"/>
<path fill-rule="evenodd" clip-rule="evenodd" d="M3.38574 3.12492C3.38574 2.11815 4.20189 1.302 5.20866 1.302H18.7503C19.7571 1.302 20.5732 2.11815 20.5732 3.12492V4.25339C20.5732 4.68486 20.2235 5.03464 19.792 5.03464C19.3605 5.03464 19.0107 4.68486 19.0107 4.25339V3.12492C19.0107 2.98109 18.8942 2.8645 18.7503 2.8645H5.20866C5.06484 2.8645 4.94824 2.98109 4.94824 3.12492V21.8749C4.94824 22.0187 5.06483 22.1353 5.20866 22.1353H18.7503C18.8941 22.1353 19.0107 22.0187 19.0107 21.8749V13.368C19.0107 12.9365 19.3605 12.5867 19.792 12.5867C20.2235 12.5867 20.5732 12.9365 20.5732 13.368V21.8749C20.5732 22.8817 19.7571 23.6978 18.7503 23.6978H5.20866C4.20189 23.6978 3.38574 22.8817 3.38574 21.8749V3.12492Z" fill="white"/>
<defs>
<linearGradient id="paint0_linear_6526_31224" x1="14.5833" y1="5.729" x2="0" y2="5.729" gradientUnits="userSpaceOnUse">
<stop stop-color="#38CCED"/>
<stop offset="1" stop-color="#38CCED" stop-opacity="0.4"/>
</linearGradient>
</defs>
</svg>
