<svg width="40" height="40" viewBox="0 0 43 38" fill="none" xmlns="http://www.w3.org/2000/svg">
<path fill-rule="evenodd" clip-rule="evenodd" d="M19.5 33C26.9558 33 33 26.9558 33 19.5C33 12.0442 26.9558 6 19.5 6C12.0442 6 6 12.0442 6 19.5C6 26.9558 12.0442 33 19.5 33Z" fill="#D7EFF6"/>
<mask id="mask0" mask-type="alpha" maskUnits="userSpaceOnUse" x="14" y="1" width="25" height="37">
<path fill-rule="evenodd" clip-rule="evenodd" d="M14 1H38.2424V37.6667H14V1Z" fill="white"/>
</mask>
<g mask="url(#mask0)">
<path fill-rule="evenodd" clip-rule="evenodd" d="M35.1531 11.4691L35.133 11.4408C34.8028 10.9189 34.2759 10.5705 33.6931 10.4204C33.0914 10.2705 32.4434 10.3334 31.8669 10.6436H31.8704C31.295 10.95 30.9102 11.4513 30.7491 12.0122C30.5909 12.5695 30.66 13.1857 30.9906 13.722L31.0018 13.7358C31.3333 14.2653 31.8605 14.6206 32.4496 14.7636C33.0407 14.9204 33.7005 14.8543 34.2685 14.5439L34.2993 14.5299C34.8587 14.2168 35.2312 13.722 35.3867 13.1786C35.5453 12.6179 35.4818 12.0054 35.1531 11.4691ZM21.7046 13.1931C23.0999 13.4087 24.3535 14.0358 25.3113 14.9413H25.3186C25.4711 15.0838 25.6194 15.2406 25.7569 15.3976L28.1513 14.0981C27.8293 13.1857 27.8144 12.2315 28.0731 11.3363C28.4143 10.1384 29.2424 9.06556 30.4836 8.3937L30.5241 8.3694C31.7519 7.71764 33.1472 7.58212 34.4069 7.90217C35.6824 8.22289 36.8332 9.00337 37.5493 10.1661V10.1695C38.2624 11.326 38.407 12.6532 38.067 13.8477C37.7275 15.0458 36.8965 16.1255 35.6565 16.794L35.3294 16.975H35.2964C34.1492 17.4873 32.8885 17.5674 31.7302 17.2813C30.7793 17.0448 29.907 16.5464 29.2239 15.8398L26.8333 17.1353C27.1081 17.8176 27.2598 18.5525 27.2598 19.3295C27.2598 20.1023 27.1081 20.8482 26.8333 21.5339L29.2239 22.826C29.907 22.1083 30.7793 21.6211 31.7302 21.3841C33.0064 21.0569 34.4202 21.1959 35.6565 21.8719L35.7359 21.9065V21.91C36.9296 22.5894 37.7313 23.6375 38.067 24.8215C38.407 26.0092 38.2624 27.3369 37.5493 28.4958L37.5063 28.5765L37.5013 28.5694C36.7853 29.6868 35.6565 30.4435 34.4105 30.7637C33.1323 31.0798 31.718 30.9447 30.4834 30.2784V30.2693C29.2424 29.5962 28.4143 28.5211 28.0731 27.3254C27.8144 26.4344 27.8293 25.4803 28.1513 24.5677L25.7569 23.2718C25.6192 23.4286 25.4711 23.5787 25.3186 23.721L25.3113 23.7279C24.3535 24.6301 23.0999 25.2571 21.7046 25.4658V28.0613C22.6992 28.2564 23.5893 28.723 24.287 29.3777L24.2907 29.3845C25.2259 30.2578 25.8048 31.4742 25.8048 32.8118C25.8048 34.1448 25.2259 35.3544 24.2907 36.2321L24.287 36.2458C23.3451 37.1233 22.0537 37.6667 20.628 37.6667C19.2099 37.6667 17.9147 37.1233 16.9754 36.2458H16.9717V36.2321C16.0354 35.3544 15.4551 34.1448 15.4551 32.8118C15.4551 31.4742 16.0354 30.2578 16.9717 29.3845V29.3777H16.9754C17.6724 28.723 18.5642 28.2564 19.5555 28.0613V25.4658C18.16 25.2571 16.909 24.6301 15.9525 23.7279L15.9426 23.721C14.7483 22.5963 14 21.0466 14 19.3295C14 17.6159 14.7483 16.0659 15.9426 14.9413H15.9525C16.909 14.0358 18.16 13.4087 19.5555 13.1931V10.6085C18.5644 10.4067 17.6724 9.94001 16.9754 9.28879H16.9717V9.28187C16.0355 8.40049 15.4551 7.19215 15.4551 5.85454C15.4551 4.524 16.0355 3.30507 16.9717 2.42736L16.9754 2.42383C17.9148 1.543 19.2099 1 20.628 1C22.0537 1 23.3453 1.543 24.287 2.42383V2.42736H24.2909C25.2259 3.30507 25.8048 4.524 25.8048 5.85454C25.8048 7.19215 25.2259 8.40049 24.2909 9.28187L24.287 9.28879C23.5894 9.94001 22.6992 10.4067 21.7046 10.6085V13.1931ZM23.0877 17.0275C22.4583 16.4386 21.5896 16.0694 20.628 16.0694C19.668 16.0694 18.8018 16.4386 18.1735 17.0275C17.5471 17.6159 17.1609 18.4275 17.1609 19.3295C17.1609 20.2315 17.5471 21.0466 18.1735 21.6419C18.8018 22.2272 19.668 22.593 20.628 22.593C21.5896 22.593 22.4583 22.2272 23.0877 21.6419C23.7155 21.0466 24.1015 20.2315 24.1015 19.3295C24.1015 18.4275 23.7155 17.6159 23.0877 17.0275ZM33.6931 28.2449C34.2871 28.0982 34.8249 27.7407 35.1531 27.1998L35.1973 27.1207C35.4893 26.6084 35.5428 26.0161 35.3867 25.4908C35.2294 24.9296 34.8439 24.4317 34.2685 24.1221L34.2348 24.1006C33.6741 23.8116 33.0359 23.7488 32.4496 23.8987C31.8532 24.0383 31.3171 24.411 30.9908 24.9474C30.66 25.4803 30.5909 26.0929 30.7491 26.657C30.9127 27.2119 31.295 27.713 31.8669 28.0261H31.8704C32.4434 28.3355 33.0914 28.3907 33.6931 28.2449ZM20.628 35.0618C21.2965 35.0618 21.8965 34.8064 22.3285 34.4066L22.3335 34.3951C22.7662 33.9959 23.03 33.4317 23.03 32.8118C23.03 32.1848 22.7662 31.6232 22.3335 31.2169H22.3285C21.8965 30.8058 21.2965 30.5573 20.628 30.5573C19.9612 30.5573 19.3661 30.8058 18.9395 31.2169H18.9283C18.4975 31.6232 18.2301 32.1848 18.2301 32.8118C18.2301 33.4317 18.4975 33.9959 18.9283 34.3951L18.9395 34.4066C19.3661 34.8064 19.9612 35.0618 20.628 35.0618ZM22.3285 4.26275C21.8965 3.85553 21.2965 3.60474 20.628 3.60474C19.9612 3.60474 19.3661 3.85553 18.9395 4.26275H18.9283C18.4975 4.66698 18.2301 5.23116 18.2301 5.85454C18.2301 6.48159 18.4975 7.04225 18.9283 7.4424L18.9395 7.45354C19.3661 7.85736 19.9612 8.10462 20.628 8.10462C21.2965 8.10462 21.8965 7.85736 22.3285 7.45354L22.3335 7.4424C22.7662 7.04225 23.03 6.48159 23.03 5.85454C23.03 5.23116 22.7662 4.66698 22.3335 4.26275H22.3285Z" fill="#0074A2"/>
</g>
</svg>
