<svg width="25" height="25" viewBox="0 0 25 25" fill="none" xmlns="http://www.w3.org/2000/svg">
<path fill-rule="evenodd" clip-rule="evenodd" d="M4.16602 21.875L20.3118 21.875L20.3118 3.125L4.16601 3.125L4.16602 21.875ZM2.60352 22.3958C2.60352 22.9711 3.06989 23.4375 3.64518 23.4375L20.8327 23.4375C21.408 23.4375 21.8743 22.9711 21.8743 22.3958L21.8743 2.60416C21.8743 2.02887 21.408 1.5625 20.8327 1.5625L3.64518 1.5625C3.06988 1.5625 2.60351 2.02887 2.60351 2.60416L2.60352 22.3958Z" fill="white"/>
<path fill-rule="evenodd" clip-rule="evenodd" d="M7.55176 2.08325L7.55176 22.3958L5.98926 22.3958L5.98926 2.08325L7.55176 2.08325Z" fill="white"/>
<path fill-rule="evenodd" clip-rule="evenodd" d="M1.30176 18.75C1.30176 18.3185 1.65154 17.9688 2.08301 17.9688L4.68717 17.9688C5.11865 17.9688 5.46842 18.3185 5.46842 18.75C5.46842 19.1815 5.11865 19.5312 4.68717 19.5312L2.08301 19.5312C1.65154 19.5312 1.30176 19.1815 1.30176 18.75Z" fill="white"/>
<path fill-rule="evenodd" clip-rule="evenodd" d="M1.30176 12.5C1.30176 12.0685 1.65154 11.7188 2.08301 11.7188L4.68717 11.7188C5.11865 11.7188 5.46842 12.0685 5.46842 12.5C5.46842 12.9315 5.11865 13.2812 4.68717 13.2812L2.08301 13.2812C1.65154 13.2812 1.30176 12.9315 1.30176 12.5Z" fill="white"/>
<path fill-rule="evenodd" clip-rule="evenodd" d="M1.30176 6.25C1.30176 5.81853 1.65154 5.46875 2.08301 5.46875L4.68717 5.46875C5.11865 5.46875 5.46842 5.81853 5.46842 6.25C5.46842 6.68147 5.11865 7.03125 4.68717 7.03125L2.08301 7.03125C1.65154 7.03125 1.30176 6.68147 1.30176 6.25Z" fill="white"/>
<rect x="14.0625" y="15.625" width="4.16667" height="4.16667" fill="url(#paint0_linear_6526_31179)"/>
<rect x="9.89551" y="5.20825" width="4.16667" height="4.16667" fill="url(#paint1_linear_6526_31179)"/>
<path fill-rule="evenodd" clip-rule="evenodd" d="M11.9785 6.5105C12.41 6.5105 12.7598 6.86028 12.7598 7.29175V10.2372C12.7598 10.9563 13.3427 11.5392 14.0618 11.5392C15.6439 11.5392 16.9264 12.8218 16.9264 14.4038V17.7084C16.9264 18.1399 16.5767 18.4897 16.1452 18.4897C15.7137 18.4897 15.3639 18.1399 15.3639 17.7084V14.4038C15.3639 13.6847 14.781 13.1017 14.0618 13.1017C12.4798 13.1017 11.1973 11.8192 11.1973 10.2372V7.29175C11.1973 6.86028 11.547 6.5105 11.9785 6.5105Z" fill="white"/>
<defs>
<linearGradient id="paint0_linear_6526_31179" x1="16.1458" y1="15.625" x2="16.1458" y2="19.7917" gradientUnits="userSpaceOnUse">
<stop stop-color="#38CCED"/>
<stop offset="1" stop-color="#38CCED" stop-opacity="0.4"/>
</linearGradient>
<linearGradient id="paint1_linear_6526_31179" x1="11.9788" y1="5.20825" x2="11.9788" y2="9.37492" gradientUnits="userSpaceOnUse">
<stop stop-color="#38CCED"/>
<stop offset="1" stop-color="#38CCED" stop-opacity="0.4"/>
</linearGradient>
</defs>
</svg>
