<svg width="25" height="25" viewBox="0 0 25 25" fill="none" xmlns="http://www.w3.org/2000/svg">
<path fill-rule="evenodd" clip-rule="evenodd" d="M12.5 21.875C17.6777 21.875 21.875 17.6777 21.875 12.5C21.875 7.32233 17.6777 3.125 12.5 3.125C7.32233 3.125 3.125 7.32233 3.125 12.5C3.125 17.6777 7.32233 21.875 12.5 21.875ZM12.5 23.4375C18.5406 23.4375 23.4375 18.5406 23.4375 12.5C23.4375 6.45939 18.5406 1.5625 12.5 1.5625C6.45939 1.5625 1.5625 6.45939 1.5625 12.5C1.5625 18.5406 6.45939 23.4375 12.5 23.4375Z" fill="white"/>
<rect width="4.16667" height="4.16667" transform="matrix(1 0 0 -1 10.417 18.2292)" fill="url(#paint0_linear_6526_31194)"/>
<path fill-rule="evenodd" clip-rule="evenodd" d="M12.5718 7.03125C11.3607 7.03125 10.3789 8.01304 10.3789 9.22414C10.3789 9.65561 10.0291 10.0054 9.59766 10.0054C9.16618 10.0054 8.81641 9.65561 8.81641 9.22414C8.81641 7.15009 10.4978 5.46875 12.5718 5.46875C14.6458 5.46875 16.3272 7.15009 16.3272 9.22414C16.3272 11.2982 14.6458 12.9795 12.5718 12.9795C12.1403 12.9795 11.7905 12.6297 11.7905 12.1983C11.7905 11.7668 12.1403 11.417 12.5718 11.417C13.7829 11.417 14.7647 10.4352 14.7647 9.22414C14.7647 8.01304 13.7829 7.03125 12.5718 7.03125Z" fill="white"/>
<path fill-rule="evenodd" clip-rule="evenodd" d="M12.5723 11.7187C13.0037 11.7188 13.3535 12.0685 13.3535 12.5L13.3535 15.625C13.3535 16.0565 13.0037 16.4063 12.5723 16.4063C12.1408 16.4063 11.791 16.0565 11.791 15.625L11.791 12.5C11.791 12.0685 12.1408 11.7187 12.5723 11.7187Z" fill="white"/>
<path fill-rule="evenodd" clip-rule="evenodd" d="M12.5723 17.1353C13.0037 17.1353 13.3535 17.485 13.3535 17.9165L13.3535 18.7498C13.3535 19.1813 13.0037 19.5311 12.5723 19.5311C12.1408 19.5311 11.791 19.1813 11.791 18.7498L11.791 17.9165C11.791 17.485 12.1408 17.1353 12.5723 17.1353Z" fill="white"/>
<defs>
<linearGradient id="paint0_linear_6526_31194" x1="3.41435" y1="6.71608e-07" x2="-1.38889" y2="6.24951e-07" gradientUnits="userSpaceOnUse">
<stop stop-color="#38CCED"/>
<stop offset="1" stop-color="#38CCED" stop-opacity="0"/>
</linearGradient>
</defs>
</svg>
