<svg width="27" height="25" viewBox="0 0 27 25" fill="none" xmlns="http://www.w3.org/2000/svg">
<path fill-rule="evenodd" clip-rule="evenodd" d="M6.57437 22.0448C6.19304 22.2467 5.72025 22.1012 5.51837 21.7199L1.08889 13.3531C0.806435 12.8196 0.806435 12.1808 1.08889 11.6472L5.51837 3.28046C5.72025 2.89913 6.19304 2.75366 6.57437 2.95554C6.9557 3.15742 7.10117 3.63021 6.89929 4.01154L2.46981 12.3783C2.42946 12.4545 2.42946 12.5458 2.46981 12.622L6.89929 20.9888C7.10117 21.3701 6.9557 21.8429 6.57437 22.0448Z" fill="white"/>
<path fill-rule="evenodd" clip-rule="evenodd" d="M20.4266 2.95545C20.8079 2.75357 21.2807 2.89904 21.4826 3.28037L25.9121 11.6472C26.1945 12.1807 26.1945 12.8195 25.9121 13.353L21.4826 21.7198C21.2807 22.1011 20.8079 22.2466 20.4266 22.0447C20.0453 21.8428 19.8998 21.37 20.1017 20.9887L24.5312 12.6219C24.5715 12.5457 24.5715 12.4544 24.5312 12.3782L20.1017 4.01145C19.8998 3.63012 20.0453 3.15733 20.4266 2.95545Z" fill="white"/>
<rect x="10.6074" y="19.2737" width="14.5833" height="2.08333" transform="rotate(-75 10.6074 19.2737)" fill="url(#paint0_linear_6526_31209)"/>
<defs>
<linearGradient id="paint0_linear_6526_31209" x1="25.1908" y1="19.2737" x2="10.6074" y2="19.2737" gradientUnits="userSpaceOnUse">
<stop stop-color="#38CCED"/>
<stop offset="1" stop-color="#38CCED" stop-opacity="0.4"/>
</linearGradient>
</defs>
</svg>
