<svg id="Layer_1" data-name="Layer 1" xmlns="http://www.w3.org/2000/svg" viewBox="0 0 181 34.37"><defs><style>.cls-1{fill:#ff671d;}.cls-2{fill:#abc8e7;}.cls-3{fill:#4197cb;}.cls-4{fill:none;stroke:#ff671d;stroke-miterlimit:10;stroke-width:2.21px;opacity:0.51;}</style></defs><title>confluent_logo</title><path class="cls-1" d="M5.68,17.18A1.42,1.42,0,0,1,4.26,18.6H1.42A1.42,1.42,0,0,1,0,17.18H0a1.43,1.43,0,0,1,1.42-1.42H4.26a1.43,1.43,0,0,1,1.42,1.42Z" transform="translate(0 0)"/><path class="cls-1" d="M18.29,17.18a1.42,1.42,0,0,1-1.42,1.42H9.62A1.41,1.41,0,0,1,8.2,17.18h0a1.42,1.42,0,0,1,1.42-1.42h7.25a1.43,1.43,0,0,1,1.42,1.42Z" transform="translate(0 0)"/><path class="cls-2" d="M8.83,9.3a1.43,1.43,0,0,1-1.42,1.42H4.57A1.43,1.43,0,0,1,3.15,9.3h0A1.43,1.43,0,0,1,4.57,7.88H7.41A1.43,1.43,0,0,1,8.83,9.3Z" transform="translate(0 0)"/><path class="cls-2" d="M21.44,9.3A1.43,1.43,0,0,1,20,10.72H12.77A1.43,1.43,0,0,1,11.35,9.3h0a1.43,1.43,0,0,1,1.42-1.42H20A1.43,1.43,0,0,1,21.44,9.3Z" transform="translate(0 0)"/><path class="cls-2" d="M8.83,25.07a1.42,1.42,0,0,1-1.42,1.41H4.57a1.42,1.42,0,0,1-1.42-1.41h0a1.42,1.42,0,0,1,1.42-1.42H7.41a1.42,1.42,0,0,1,1.42,1.42Z" transform="translate(0 0)"/><path class="cls-2" d="M21.44,25.07A1.42,1.42,0,0,1,20,26.48H12.77a1.42,1.42,0,0,1-1.42-1.41h0a1.42,1.42,0,0,1,1.42-1.42H20a1.42,1.42,0,0,1,1.42,1.42Z" transform="translate(0 0)"/><path class="cls-3" d="M22.39,1.26A1.35,1.35,0,0,1,21,2.52H14.35a1.35,1.35,0,0,1-1.42-1.26A1.35,1.35,0,0,1,14.35,0H21A1.35,1.35,0,0,1,22.39,1.26Z" transform="translate(0 0)"/><path class="cls-3" d="M31.84,1.26a1.34,1.34,0,0,1-1.41,1.26H27a1.35,1.35,0,0,1-1.42-1.26A1.35,1.35,0,0,1,27,0h3.47A1.34,1.34,0,0,1,31.84,1.26Z" transform="translate(0 0)"/><path class="cls-3" d="M22.39,33.1A1.35,1.35,0,0,1,21,34.37H14.35a1.27,1.27,0,1,1,0-2.53H21A1.35,1.35,0,0,1,22.39,33.1Z" transform="translate(0 0)"/><path class="cls-3" d="M31.84,33.1a1.35,1.35,0,0,1-1.41,1.27H27a1.27,1.27,0,1,1,0-2.53h3.47A1.34,1.34,0,0,1,31.84,33.1Z" transform="translate(0 0)"/><path class="cls-1" d="M51.71,25.07c-4.78,0-8.67-3.47-8.67-7.73s3.89-7.72,8.67-7.72,8.67,3.46,8.67,7.72S56.49,25.07,51.71,25.07Zm0-13.25c-3.57,0-6.47,2.48-6.47,5.52s2.9,5.52,6.47,5.52,6.46-2.48,6.46-5.52S55.27,11.82,51.71,11.82Z" transform="translate(0 0)"/><path class="cls-1" d="M33.1,25.07c-4.78,0-8.67-3.47-8.67-7.73s3.89-7.72,8.67-7.72a9.19,9.19,0,0,1,6.46,2.56A1.11,1.11,0,0,1,38,13.75a6.93,6.93,0,0,0-4.9-1.93c-3.56,0-6.46,2.48-6.46,5.52s2.9,5.52,6.46,5.52A7,7,0,0,0,38,20.94a1.1,1.1,0,1,1,1.56,1.56A9.22,9.22,0,0,1,33.1,25.07Z" transform="translate(0 0)"/><path class="cls-4" d="M40.67,17.34" transform="translate(0 0)"/><path class="cls-1" d="M65.74,25.38a1.11,1.11,0,0,1-1.11-1.1V10.44l1-.21c.31-.07,7.67-1.81,11.51.7,2.67,1.74,2.69,4.07,2.59,12.72l0,.48a1.1,1.1,0,0,1-1.11,1.09,1.08,1.08,0,0,1-1.08-1.11v-.48c.09-8.22-.1-9.8-1.71-10.85-2.2-1.44-6.8-1-9-.58V24.28A1.1,1.1,0,0,1,65.74,25.38Z" transform="translate(0 0)"/><path class="cls-1" d="M101.05,25.38a1.1,1.1,0,0,1-1.1-1.1V4.73a1.1,1.1,0,1,1,2.2,0V24.28A1.1,1.1,0,0,1,101.05,25.38Z" transform="translate(0 0)"/><path class="cls-1" d="M117.41,25.06a11,11,0,0,1-5.85-1.35C108.93,22,109,20,109,11.77v-.93a1.1,1.1,0,0,1,1.11-1.09,1.12,1.12,0,0,1,1.1,1.12v.92c-.09,8-.17,9.07,1.36,10.07,2.21,1.45,6.25,1,8.77.58V11a1.11,1.11,0,0,1,2.21,0V24.2l-.69.21A24.74,24.74,0,0,1,117.41,25.06Z" transform="translate(0 0)"/><path class="cls-1" d="M152.44,25.38a1.1,1.1,0,0,1-1.1-1.1V10.44l1-.21c.3-.07,7.66-1.81,11.5.7,2.67,1.74,2.69,4.07,2.6,12.72v.48a1.1,1.1,0,1,1-2.19,0v-.48c.08-8.22-.11-9.8-1.71-10.85-2.21-1.44-6.81-1-9-.58V24.28A1.1,1.1,0,0,1,152.44,25.38Z" transform="translate(0 0)"/><path class="cls-1" d="M139.53,25c-3.05,0-6.28-.51-8.37-2.29A6.38,6.38,0,0,1,129,17.58a7.35,7.35,0,0,1,2.83-6.15c2.6-1.95,6.41-2.06,9-1.3A6.89,6.89,0,0,1,145.7,18l-.15.93H134.94a1.11,1.11,0,0,1,0-2.21h8.63a4.51,4.51,0,0,0-3.36-4.46c-2-.59-5.12-.54-7.11.95a5.15,5.15,0,0,0-1.94,4.38A4.17,4.17,0,0,0,132.6,21c2.9,2.48,9.39,1.75,12.05,1.33a1.1,1.1,0,0,1,.35,2.18A36.23,36.23,0,0,1,139.53,25Z" transform="translate(0 0)"/><path class="cls-1" d="M95,1.86a1.28,1.28,0,0,0-1.52-.77c-.29.08-7.38,2-7.38,7.11V24.28a1.11,1.11,0,0,0,2.21,0V14.19A2.26,2.26,0,0,1,89,12.5a3,3,0,0,1,2.2-.53h.2a1.13,1.13,0,0,0,1.14-1.1,1.1,1.1,0,0,0-1.09-1.11h-.21a6,6,0,0,0-3,.47v-2c0-3.38,5.68-5,5.76-5A1.21,1.21,0,0,0,95,1.86Z" transform="translate(0 0)"/><path class="cls-1" d="M179.9,23c-4.74,0-5.55-1.37-5.55-2.84v-6a2.5,2.5,0,0,1,.75-1.84,2.65,2.65,0,0,1,1.9-.53h.15a1.1,1.1,0,0,0,0-2.2H177a5.81,5.81,0,0,0-2.64.49V7.57a1.1,1.1,0,1,0-2.2,0V20.18c0,5,5.87,5,7.75,5a1.1,1.1,0,0,0,0-2.2Z" transform="translate(0 0)"/></svg>