<?xml version="1.0" encoding="UTF-8" standalone="no"?>
<svg
   xmlns:dc="http://purl.org/dc/elements/1.1/"
   xmlns:cc="http://creativecommons.org/ns#"
   xmlns:rdf="http://www.w3.org/1999/02/22-rdf-syntax-ns#"
   xmlns:svg="http://www.w3.org/2000/svg"
   xmlns="http://www.w3.org/2000/svg"
   viewBox="0 0 1966.6667 623.78668"
   height="623.78668"
   width="1966.6667"
   xml:space="preserve"
   id="svg2"
   version="1.1"><metadata
     id="metadata8"><rdf:RDF><cc:Work
         rdf:about=""><dc:format>image/svg+xml</dc:format><dc:type
           rdf:resource="http://purl.org/dc/dcmitype/StillImage" /></cc:Work></rdf:RDF></metadata><defs
     id="defs6" /><g
     transform="matrix(1.3333333,0,0,-1.3333333,0,623.78667)"
     id="g10"><g
       transform="scale(0.1)"
       id="g12"><path
         id="path14"
         style="fill:#ffffff;fill-opacity:1;fill-rule:nonzero;stroke:none"
         d="m 4821.67,2212.63 h 110.1 c -42.96,-205.42 -210.79,-343.7 -434.98,-343.7 -263.16,0 -475.28,204.06 -475.28,473.92 0,269.86 212.12,472.6 475.28,472.6 224.19,0 392.02,-136.94 434.98,-342.36 h -110.1 c -37.59,149.02 -158.42,243 -324.88,243 -206.76,0 -367.88,-159.77 -367.88,-373.24 0,-213.47 161.12,-374.57 367.88,-374.57 166.46,0 287.29,96.66 324.88,244.35" /><path
         id="path16"
         style="fill:#ffffff;fill-opacity:1;fill-rule:nonzero;stroke:none"
         d="m 6134.63,2342.85 c 0,-263.14 -212.12,-472.59 -475.26,-472.59 -263.16,0 -475.29,209.45 -475.29,472.59 0,263.16 212.13,472.6 475.29,472.6 263.14,0 475.26,-209.44 475.26,-472.6 m -107.42,0 c 0,206.77 -161.08,373.24 -367.84,373.24 -206.76,0 -367.88,-166.47 -367.88,-373.24 0,-206.75 161.12,-373.22 367.88,-373.22 206.76,0 367.84,166.47 367.84,373.22" /><path
         id="path18"
         style="fill:#ffffff;fill-opacity:1;fill-rule:nonzero;stroke:none"
         d="m 7222.04,2799.34 v -912.96 h -88.63 l -584.01,719.63 v -719.63 h -106.06 v 912.96 h 85.93 l 586.71,-729.02 v 729.02 h 106.06" /><path
         id="path20"
         style="fill:#ffffff;fill-opacity:1;fill-rule:nonzero;stroke:none"
         d="m 7709.98,2701.32 v -335.64 h 464.52 v -98 h -464.52 v -381.29 h -106.06 v 912.95 h 626.97 v -98.02 h -520.91" /><path
         id="path22"
         style="fill:#ffffff;fill-opacity:1;fill-rule:nonzero;stroke:none"
         d="m 9206.86,1984.4 v -98.03 h -609.53 v 912.96 h 106.08 V 1984.4 h 503.45" /><path
         id="path24"
         style="fill:#ffffff;fill-opacity:1;fill-rule:nonzero;stroke:none"
         d="m 10217.7,2277.08 c 0,-243.02 -155.7,-406.82 -390.67,-406.82 -234.94,0 -390.7,163.8 -390.7,406.82 v 522.26 h 106.09 v -522.26 c 0,-178.56 112.78,-307.47 284.61,-307.47 170.52,0 284.67,128.91 284.67,307.47 v 522.26 h 106 v -522.26" /><path
         id="path26"
         style="fill:#ffffff;fill-opacity:1;fill-rule:nonzero;stroke:none"
         d="m 10695.9,2701.32 v -312.81 h 479.3 v -98.02 h -479.3 v -306.1 h 533 v -98 h -639.1 v 912.95 h 639.1 v -98.02 h -533" /><path
         id="path28"
         style="fill:#ffffff;fill-opacity:1;fill-rule:nonzero;stroke:none"
         d="m 12324.7,2799.34 v -912.96 h -88.6 l -584,719.63 V 1886.38 H 11546 v 912.96 h 86 l 586.7,-729.02 v 729.02 h 106" /><path
         id="path30"
         style="fill:#ffffff;fill-opacity:1;fill-rule:nonzero;stroke:none"
         d="m 12606.3,2799.34 v -98.02 h 335.6 v -814.94 h 106.1 v 814.94 h 337 v 98.02 h -778.7" /><path
         id="path32"
         style="fill:#ffffff;fill-opacity:1;fill-rule:nonzero;stroke:none"
         d="m 2636.84,2370.78 c -87.33,2.67 -174.67,3.37 -262.01,3.91 -0.18,87.38 -0.6,174.76 -2.95,262.14 l -4.15,148.81 c -2.54,49.6 -4,99.2 -7.52,148.8 h -42.02 c -3.49,-49.6 -4.95,-99.2 -7.49,-148.8 l -4.16,-148.81 c -1.11,-41 -1.62,-82.01 -2.06,-123.01 -16.11,37.71 -32.27,75.39 -48.99,112.86 l -60.77,135.88 c -21.34,44.86 -41.67,90.12 -63.89,134.62 l -38.81,-16.1 c 15.73,-47.16 33.37,-93.54 50.01,-140.34 l 53.11,-139.08 c 14.67,-38.3 29.88,-76.38 45.16,-114.43 -29.31,28.68 -58.66,57.31 -88.43,85.52 l -108.18,102.29 c -36.87,33.28 -72.97,67.32 -110.52,99.92 l -29.71,-29.71 c 32.59,-37.56 66.63,-73.65 99.92,-110.54 l 102.27,-108.16 c 28.21,-29.77 56.85,-59.13 85.53,-88.44 -38.05,15.27 -76.13,30.49 -114.43,45.16 l -139.07,53.11 c -46.81,16.62 -93.21,34.28 -140.37,50.01 l -16.07,-38.82 c 44.48,-22.21 89.76,-42.54 134.61,-63.88 l 135.89,-60.77 c 37.46,-16.72 75.14,-32.89 112.84,-48.98 -41,-0.45 -82,-0.97 -123,-2.07 l -148.81,-4.15 c -49.6,-2.55 -99.2,-4.01 -148.81,-7.52 v -42.02 c 49.61,-3.5 99.21,-4.95 148.81,-7.5 l 148.81,-4.15 c 87.38,-2.36 174.76,-2.77 262.14,-2.96 0.52,-87.33 1.22,-174.67 3.91,-262 l 4.63,-148.81 c 2.66,-49.6 4.27,-99.21 7.89,-148.81 h 38.13 c 3.61,49.6 5.23,99.21 7.89,148.81 l 4.61,148.81 c 1.3,42 1.97,84 2.56,125.99 16.63,-38.57 33.33,-77.11 50.59,-115.42 l 61.21,-135.72 c 21.46,-44.8 41.93,-90.01 64.24,-134.46 l 35.24,14.61 c -15.65,47.21 -33.14,93.64 -49.65,140.5 l -52.69,139.23 c -14.88,39.3 -30.32,78.36 -45.84,117.39 30.11,-29.28 60.29,-58.49 90.9,-87.28 l 108.48,-101.95 c 36.97,-33.19 73.18,-67.12 110.81,-99.65 l 26.96,26.96 c -32.51,37.63 -66.44,73.86 -99.64,110.81 l -101.96,108.5 c -28.78,30.61 -57.99,60.78 -87.26,90.89 39.02,-15.53 78.07,-30.97 117.36,-45.84 l 139.26,-52.69 c 46.84,-16.52 93.29,-34.02 140.5,-49.66 l 14.6,35.25 c -44.45,22.31 -89.66,42.78 -134.48,64.24 l -135.7,61.22 c -38.3,17.24 -76.83,33.94 -115.39,50.55 41.99,0.6 83.97,1.28 125.96,2.57 l 148.81,4.63 c 49.6,2.67 99.2,4.28 148.81,7.89 v 38.14 c -49.61,3.61 -99.21,5.22 -148.81,7.88 l -148.81,4.63" /><path
         id="path34"
         style="fill:#ffffff;fill-opacity:1;fill-rule:nonzero;stroke:none"
         d="m 2339.2,1456.12 c -486.93,0 -883.08,396.14 -883.08,883.07 0,486.94 396.15,883.1 883.08,883.1 486.96,0 883.09,-396.16 883.09,-883.1 0,-486.93 -396.13,-883.07 -883.09,-883.07 z m 0,1857.27 c -537.18,0 -974.2,-437.01 -974.2,-974.2 0,-537.17 437.02,-974.19 974.2,-974.19 537.2,0 974.21,437.02 974.21,974.19 0,537.19 -437.01,974.2 -974.21,974.2" /></g></g></svg>